# Blender v3.1.2 OBJ File: 'HeavenRush.blend'
# www.blender.org
o Cube_Cube.001
v 1.000000 0.059875 -1.000000
v 1.000000 3.731157 -1.000000
v 1.000000 2.941934 -1.000000
v 1.000000 1.053118 -1.000000
v 0.816035 2.941934 -0.816035
v 0.816035 1.053118 -0.816035
v 0.816035 1.435890 -0.816035
v 0.816035 2.568739 -0.816035
v 0.816035 2.438063 -0.816035
v 0.816035 1.573189 -0.816035
v 0.903203 1.573189 -0.903203
v 0.903203 1.435890 -0.903203
v 0.903203 2.568739 -0.903203
v 0.903203 2.438063 -0.903203
v 0.000000 5.062061 -0.501082
v 0.000000 5.062061 -0.798918
v 0.000000 5.359625 -0.501082
v 0.000000 5.359625 -0.798918
v 0.501082 4.657846 -0.492537
v 0.798918 4.657846 -0.492537
v 0.501082 4.752053 -0.463959
v 0.798918 4.752053 -0.463959
v 0.501082 4.838875 -0.417552
v 0.798918 4.838875 -0.417552
v 0.501082 4.914974 -0.355099
v 0.798918 4.914974 -0.355099
v 0.501082 4.977427 -0.279000
v 0.798918 4.977427 -0.279000
v 0.501082 5.023834 -0.192178
v 0.798918 5.023834 -0.192178
v 0.501082 5.052412 -0.097972
v 0.798918 5.052412 -0.097972
v 0.501082 5.062061 0.000000
v 0.798918 5.062061 0.000000
v 0.796997 4.557391 -0.800000
v 0.501082 5.359625 0.000000
v 0.798918 5.359625 0.000000
v 0.501082 4.557391 -0.502186
v 0.798918 4.557391 -0.502186
v 0.797811 5.359625 -0.800000
v 0.492537 4.657846 -0.501082
v 0.492537 4.657846 -0.798918
v 0.463959 4.752053 -0.501082
v 0.463959 4.752053 -0.798918
v 0.417552 4.838875 -0.501082
v 0.417552 4.838875 -0.798918
v 0.355099 4.914974 -0.501082
v 0.355099 4.914974 -0.798918
v 0.279000 4.977427 -0.501082
v 0.279000 4.977427 -0.798918
v 0.192178 5.023834 -0.501082
v 0.192178 5.023834 -0.798918
v 0.097972 5.052412 -0.501082
v 0.097972 5.052412 -0.798918
v 0.502186 5.359625 -0.501082
v 0.502186 4.557391 -0.798918
v 0.796997 3.698434 -0.800000
v 0.000000 0.059875 -1.000000
v 0.000000 3.731157 -1.000000
v 0.000000 2.941934 -1.000000
v 0.000000 1.053118 -1.000000
v 0.000000 2.941934 -0.816035
v 0.000000 1.053118 -0.816035
v 0.000000 2.568739 -0.816035
v 0.000000 1.435890 -0.903203
v 0.000000 2.568739 -0.903203
v 0.000000 2.438063 -0.903203
v 0.000000 1.573189 -0.903203
v 0.000000 1.435890 -0.816035
v 0.000000 2.438063 -0.816035
v 0.000000 1.573189 -0.816035
v 0.501082 3.698434 -0.502186
v 0.798918 3.698434 -0.502186
v 0.502186 3.698434 -0.798918
v 0.798918 5.359625 -0.097972
v 0.798918 5.359625 -0.192178
v 0.798918 5.359625 -0.279000
v 0.798918 5.359625 -0.355099
v 0.501551 4.914974 -0.501717
v 0.501458 4.838875 -0.501810
v 0.355099 5.359625 -0.798918
v 0.279000 5.359625 -0.798918
v 0.192178 5.359625 -0.798918
v 0.097972 5.359625 -0.798918
v 1.000000 0.059875 0.000000
v 1.000000 2.941934 0.000000
v 0.816035 1.435890 0.000000
v 0.816035 2.438063 0.000000
v 0.816035 1.053118 0.000000
v 0.816035 1.573189 0.000000
v 0.816035 2.568739 0.000000
v 0.903203 2.568739 0.000000
v 0.903203 1.435890 0.000000
v 0.903203 2.438063 0.000000
v 0.903203 1.573189 0.000000
v 1.000000 3.731157 0.000000
v 1.000000 1.053118 0.000000
v 0.816035 2.941934 0.000000
v 0.000000 3.731157 0.000000
v 0.501266 5.359625 -0.097972
v 0.501480 5.359625 -0.192178
v 0.501669 5.359625 -0.279000
v 0.501853 5.359625 -0.355099
v 0.501346 4.752053 -0.501922
v 0.501219 4.657846 -0.502049
v 0.797359 4.914974 -0.800000
v 0.797279 4.838875 -0.800000
v 0.797195 4.752053 -0.800000
v 0.797094 4.657846 -0.800000
v 0.355099 5.359625 -0.501082
v 0.279000 5.359625 -0.501082
v 0.192178 5.359625 -0.501082
v 0.097972 5.359625 -0.501082
v -1.000000 0.059875 -1.000000
v -1.000000 3.731157 -1.000000
v -1.000000 2.941934 -1.000000
v -1.000000 1.053118 -1.000000
v -0.816035 2.941934 -0.816035
v -0.816035 1.053118 -0.816035
v -0.816035 1.435890 -0.816035
v -0.816035 2.568739 -0.816035
v -0.816035 2.438063 -0.816035
v -0.816035 1.573189 -0.816035
v -0.903203 1.573189 -0.903203
v -0.903203 1.435890 -0.903203
v -0.903203 2.568739 -0.903203
v -0.903203 2.438063 -0.903203
v -0.501082 4.657846 -0.492537
v -0.798918 4.657846 -0.492537
v -0.501082 4.752053 -0.463959
v -0.798918 4.752053 -0.463959
v -0.501082 4.838875 -0.417552
v -0.798918 4.838875 -0.417552
v -0.501082 4.914974 -0.355099
v -0.798918 4.914974 -0.355099
v -0.501082 4.977427 -0.279000
v -0.798918 4.977427 -0.279000
v -0.501082 5.023834 -0.192178
v -0.798918 5.023834 -0.192178
v -0.501082 5.052412 -0.097972
v -0.798918 5.052412 -0.097972
v -0.501082 5.062061 0.000000
v -0.798918 5.062061 0.000000
v -0.796997 4.557391 -0.800000
v -0.501082 5.359625 0.000000
v -0.798918 5.359625 0.000000
v -0.501082 4.557391 -0.502186
v -0.798918 4.557391 -0.502186
v -0.797811 5.359625 -0.800000
v -0.492537 4.657846 -0.501082
v -0.492537 4.657846 -0.798918
v -0.463959 4.752053 -0.501082
v -0.463959 4.752053 -0.798918
v -0.417552 4.838875 -0.501082
v -0.417552 4.838875 -0.798918
v -0.355099 4.914974 -0.501082
v -0.355099 4.914974 -0.798918
v -0.279000 4.977427 -0.501082
v -0.279000 4.977427 -0.798918
v -0.192178 5.023834 -0.501082
v -0.192178 5.023834 -0.798918
v -0.097972 5.052412 -0.501082
v -0.097972 5.052412 -0.798918
v -0.502186 5.359625 -0.501082
v -0.502186 4.557391 -0.798918
v -0.796997 3.698434 -0.800000
v -0.501082 3.698434 -0.502186
v -0.798918 3.698434 -0.502186
v -0.502186 3.698434 -0.798918
v -0.798918 5.359625 -0.097972
v -0.798918 5.359625 -0.192178
v -0.798918 5.359625 -0.279000
v -0.798918 5.359625 -0.355099
v -0.501551 4.914974 -0.501717
v -0.501458 4.838875 -0.501810
v -0.355099 5.359625 -0.798918
v -0.279000 5.359625 -0.798918
v -0.192178 5.359625 -0.798918
v -0.097972 5.359625 -0.798918
v -1.000000 0.059875 0.000000
v -1.000000 2.941934 0.000000
v -0.816035 1.435890 0.000000
v -0.816035 2.438063 0.000000
v -0.816035 1.053118 0.000000
v -0.816035 1.573189 0.000000
v -0.816035 2.568739 0.000000
v -0.903203 2.568739 0.000000
v -0.903203 1.435890 0.000000
v -0.903203 2.438063 0.000000
v -0.903203 1.573189 0.000000
v -1.000000 3.731157 0.000000
v -1.000000 1.053118 0.000000
v -0.816035 2.941934 0.000000
v -0.501266 5.359625 -0.097972
v -0.501480 5.359625 -0.192178
v -0.501669 5.359625 -0.279000
v -0.501853 5.359625 -0.355099
v -0.501346 4.752053 -0.501922
v -0.501219 4.657846 -0.502049
v -0.797359 4.914974 -0.800000
v -0.797279 4.838875 -0.800000
v -0.797195 4.752053 -0.800000
v -0.797094 4.657846 -0.800000
v -0.355099 5.359625 -0.501082
v -0.279000 5.359625 -0.501082
v -0.192178 5.359625 -0.501082
v -0.097972 5.359625 -0.501082
v 1.000000 0.059875 1.000000
v 1.000000 3.731157 1.000000
v 1.000000 2.941934 1.000000
v 1.000000 1.053118 1.000000
v 0.816035 2.941934 0.816035
v 0.816035 1.053118 0.816035
v 0.816035 1.435890 0.816035
v 0.816035 2.568739 0.816035
v 0.816035 2.438063 0.816035
v 0.816035 1.573189 0.816035
v 0.903203 1.573189 0.903203
v 0.903203 1.435890 0.903203
v 0.903203 2.568739 0.903203
v 0.903203 2.438063 0.903203
v 0.000000 5.062061 0.501082
v 0.000000 5.062061 0.798918
v 0.000000 5.359625 0.501082
v 0.000000 5.359625 0.798918
v 0.501082 4.657846 0.492537
v 0.798918 4.657846 0.492537
v 0.501082 4.752053 0.463959
v 0.798918 4.752053 0.463959
v 0.501082 4.838875 0.417552
v 0.798918 4.838875 0.417552
v 0.501082 4.914974 0.355099
v 0.798918 4.914974 0.355099
v 0.501082 4.977427 0.279000
v 0.798918 4.977427 0.279000
v 0.501082 5.023834 0.192178
v 0.798918 5.023834 0.192178
v 0.501082 5.052412 0.097972
v 0.798918 5.052412 0.097972
v 0.796997 4.557391 0.800000
v 0.501082 4.557391 0.502186
v 0.798918 4.557391 0.502186
v 0.797811 5.359625 0.800000
v 0.492537 4.657846 0.501082
v 0.492537 4.657846 0.798918
v 0.463959 4.752053 0.501082
v 0.463959 4.752053 0.798918
v 0.417552 4.838875 0.501082
v 0.417552 4.838875 0.798918
v 0.355099 4.914974 0.501082
v 0.355099 4.914974 0.798918
v 0.279000 4.977427 0.501082
v 0.279000 4.977427 0.798918
v 0.192178 5.023834 0.501082
v 0.192178 5.023834 0.798918
v 0.097972 5.052412 0.501082
v 0.097972 5.052412 0.798918
v 0.502186 5.359625 0.501082
v 0.502186 4.557391 0.798918
v 0.796997 3.698434 0.800000
v 0.000000 0.059875 1.000000
v 0.000000 3.731157 1.000000
v 0.000000 2.941934 1.000000
v 0.000000 1.053118 1.000000
v 0.000000 2.941934 0.816035
v 0.000000 1.053118 0.816035
v 0.000000 2.568739 0.816035
v 0.000000 1.435890 0.903203
v 0.000000 2.568739 0.903203
v 0.000000 2.438063 0.903203
v 0.000000 1.573189 0.903203
v 0.000000 1.435890 0.816035
v 0.000000 2.438063 0.816035
v 0.000000 1.573189 0.816035
v 0.501082 3.698434 0.502186
v 0.798918 3.698434 0.502186
v 0.502186 3.698434 0.798918
v 0.798918 5.359625 0.097972
v 0.798918 5.359625 0.192178
v 0.798918 5.359625 0.279000
v 0.798918 5.359625 0.355099
v 0.501551 4.914974 0.501717
v 0.501458 4.838875 0.501810
v 0.355099 5.359625 0.798918
v 0.279000 5.359625 0.798918
v 0.192178 5.359625 0.798918
v 0.097972 5.359625 0.798918
v 0.501266 5.359625 0.097972
v 0.501480 5.359625 0.192178
v 0.501669 5.359625 0.279000
v 0.501853 5.359625 0.355099
v 0.501346 4.752053 0.501922
v 0.501219 4.657846 0.502049
v 0.797359 4.914974 0.800000
v 0.797279 4.838875 0.800000
v 0.797195 4.752053 0.800000
v 0.797094 4.657846 0.800000
v 0.355099 5.359625 0.501082
v 0.279000 5.359625 0.501082
v 0.192178 5.359625 0.501082
v 0.097972 5.359625 0.501082
v -1.000000 0.059875 1.000000
v -1.000000 3.731157 1.000000
v -1.000000 2.941934 1.000000
v -1.000000 1.053118 1.000000
v -0.816035 2.941934 0.816035
v -0.816035 1.053118 0.816035
v -0.816035 1.435890 0.816035
v -0.816035 2.568739 0.816035
v -0.816035 2.438063 0.816035
v -0.816035 1.573189 0.816035
v -0.903203 1.573189 0.903203
v -0.903203 1.435890 0.903203
v -0.903203 2.568739 0.903203
v -0.903203 2.438063 0.903203
v -0.501082 4.657846 0.492537
v -0.798918 4.657846 0.492537
v -0.501082 4.752053 0.463959
v -0.798918 4.752053 0.463959
v -0.501082 4.838875 0.417552
v -0.798918 4.838875 0.417552
v -0.501082 4.914974 0.355099
v -0.798918 4.914974 0.355099
v -0.501082 4.977427 0.279000
v -0.798918 4.977427 0.279000
v -0.501082 5.023834 0.192178
v -0.798918 5.023834 0.192178
v -0.501082 5.052412 0.097972
v -0.798918 5.052412 0.097972
v -0.796997 4.557391 0.800000
v -0.501082 4.557391 0.502186
v -0.798918 4.557391 0.502186
v -0.797811 5.359625 0.800000
v -0.492537 4.657846 0.501082
v -0.492537 4.657846 0.798918
v -0.463959 4.752053 0.501082
v -0.463959 4.752053 0.798918
v -0.417552 4.838875 0.501082
v -0.417552 4.838875 0.798918
v -0.355099 4.914974 0.501082
v -0.355099 4.914974 0.798918
v -0.279000 4.977427 0.501082
v -0.279000 4.977427 0.798918
v -0.192178 5.023834 0.501082
v -0.192178 5.023834 0.798918
v -0.097972 5.052412 0.501082
v -0.097972 5.052412 0.798918
v -0.502186 5.359625 0.501082
v -0.502186 4.557391 0.798918
v -0.796997 3.698434 0.800000
v -0.501082 3.698434 0.502186
v -0.798918 3.698434 0.502186
v -0.502186 3.698434 0.798918
v -0.798918 5.359625 0.097972
v -0.798918 5.359625 0.192178
v -0.798918 5.359625 0.279000
v -0.798918 5.359625 0.355099
v -0.501551 4.914974 0.501717
v -0.501458 4.838875 0.501810
v -0.355099 5.359625 0.798918
v -0.279000 5.359625 0.798918
v -0.192178 5.359625 0.798918
v -0.097972 5.359625 0.798918
v -0.501266 5.359625 0.097972
v -0.501480 5.359625 0.192178
v -0.501669 5.359625 0.279000
v -0.501853 5.359625 0.355099
v -0.501346 4.752053 0.501922
v -0.501219 4.657846 0.502049
v -0.797359 4.914974 0.800000
v -0.797279 4.838875 0.800000
v -0.797195 4.752053 0.800000
v -0.797094 4.657846 0.800000
v -0.355099 5.359625 0.501082
v -0.279000 5.359625 0.501082
v -0.192178 5.359625 0.501082
v -0.097972 5.359625 0.501082
v 0.000000 0.000000 -4.000000
v 0.000000 0.197214 -4.000000
v 0.780361 0.000000 -3.923141
v 0.780361 0.197214 -3.923141
v 1.530734 0.000000 -3.695518
v 1.530734 0.197214 -3.695518
v 2.222281 0.000000 -3.325878
v 2.222281 0.197214 -3.325878
v 2.828427 0.000000 -2.828427
v 2.828427 0.197214 -2.828427
v 3.325878 0.000000 -2.222281
v 3.325878 0.197214 -2.222281
v 3.695518 0.000000 -1.530734
v 3.695518 0.197214 -1.530734
v 3.923141 0.000000 -0.780361
v 3.923141 0.197214 -0.780361
v 4.000000 0.000000 0.000000
v 4.000000 0.197214 0.000000
v 3.923141 0.000000 0.780361
v 3.923141 0.197214 0.780361
v 3.695518 0.000000 1.530734
v 3.695518 0.197214 1.530734
v 3.325879 0.000000 2.222281
v 3.325879 0.197214 2.222281
v 2.828427 0.000000 2.828427
v 2.828427 0.197214 2.828427
v 2.222281 0.000000 3.325879
v 2.222281 0.197214 3.325879
v 1.530734 0.000000 3.695518
v 1.530734 0.197214 3.695518
v 0.780361 0.000000 3.923141
v 0.780361 0.197214 3.923141
v -0.000000 0.000000 4.000000
v -0.000000 0.197214 4.000000
v -0.780361 0.000000 3.923141
v -0.780361 0.197214 3.923141
v -1.530734 0.000000 3.695518
v -1.530734 0.197214 3.695518
v -2.222281 0.000000 3.325878
v -2.222281 0.197214 3.325878
v -2.828427 0.000000 2.828427
v -2.828427 0.197214 2.828427
v -3.325878 0.000000 2.222282
v -3.325878 0.197214 2.222282
v -3.695518 0.000000 1.530734
v -3.695518 0.197214 1.530734
v -3.923141 0.000000 0.780362
v -3.923141 0.197214 0.780362
v -4.000000 0.000000 -0.000000
v -4.000000 0.197214 -0.000000
v -3.923141 0.000000 -0.780362
v -3.923141 0.197214 -0.780362
v -3.695518 0.000000 -1.530734
v -3.695518 0.197214 -1.530734
v -3.325879 0.000000 -2.222280
v -3.325879 0.197214 -2.222280
v -2.828428 0.000000 -2.828427
v -2.828428 0.197214 -2.828427
v -2.222281 0.000000 -3.325878
v -2.222281 0.197214 -3.325878
v -1.530734 0.000000 -3.695518
v -1.530734 0.197214 -3.695518
v -0.780361 0.000000 -3.923141
v -0.780361 0.197214 -3.923141
v 0.000000 6.308982 -1.000000
v 0.000000 6.308982 1.000000
v -1.000000 5.332989 -1.000000
v 1.000000 5.332989 -1.000000
v -1.000000 5.332989 1.000000
v 1.000000 5.332989 1.000000
vt 0.302805 0.658206
vt 0.289627 0.599751
vt 0.302805 0.586574
vt 0.223422 0.883953
vt 0.166906 0.812321
vt 0.223422 0.812321
vt 0.509929 0.870085
vt 0.438805 0.798453
vt 0.509929 0.798453
vt 0.953683 0.852687
vt 0.891751 0.794233
vt 0.953683 0.794233
vt 0.313656 0.651272
vt 0.319900 0.592818
vt 0.319900 0.651272
vt 0.651272 0.313656
vt 0.709726 0.319900
vt 0.651272 0.319900
vt 0.832496 0.288937
vt 0.822664 0.224239
vt 0.832496 0.224239
vt 0.438806 0.903143
vt 0.460804 0.909891
vt 0.438805 0.909891
vt 0.101983 0.920240
vt 0.123317 0.913222
vt 0.123317 0.920240
vt 0.575400 0.962757
vt 0.596735 0.956455
vt 0.596735 0.962757
vt 0.758534 0.432611
vt 0.726854 0.400772
vt 0.758534 0.400770
vt 0.754060 0.395321
vt 0.575400 0.949656
vt 0.596735 0.942445
vt 0.596735 0.949656
vt 0.123317 0.900255
vt 0.101983 0.894804
vt 0.123317 0.894804
vt 0.101983 0.913222
vt 0.123317 0.906474
vt 0.575400 0.968322
vt 0.596735 0.968322
vt 0.639772 0.949656
vt 0.661027 0.942447
vt 0.661106 0.949656
vt 0.826647 0.522606
vt 0.805314 0.515416
vt 0.826647 0.515412
vt 0.438807 0.881016
vt 0.470645 0.891473
vt 0.438806 0.891473
vt 0.826647 0.535569
vt 0.802576 0.529355
vt 0.826647 0.529352
vt 0.776952 0.432611
vt 0.783970 0.411303
vt 0.783970 0.432611
vt 0.220427 0.927258
vt 0.199092 0.920240
vt 0.220427 0.920240
vt 0.794778 0.541022
vt 0.826647 0.572860
vt 0.794778 0.572863
vt 0.220427 0.934007
vt 0.199092 0.927258
vt 0.220427 0.940226
vt 0.199092 0.934007
vt 0.844694 0.870658
vt 0.851438 0.870027
vt 0.851440 0.872705
vt 0.220427 0.945677
vt 0.199092 0.940226
vt 0.804623 0.522609
vt 0.639772 0.968321
vt 0.661106 0.962757
vt 0.661106 0.968321
vt 0.826647 0.541019
vt 0.799252 0.535572
vt 0.639772 0.956455
vt 0.639772 0.962757
vt 0.661106 0.956455
vt 0.894947 0.892173
vt 0.872948 0.898921
vt 0.870902 0.892173
vt 0.726865 0.389106
vt 0.748689 0.382358
vt 0.750736 0.389104
vt 0.837498 0.870046
vt 0.844692 0.870036
vt 0.489058 0.881628
vt 0.489058 0.880946
vt 0.496252 0.880936
vt 0.438806 0.896924
vt 0.462850 0.903143
vt 0.789327 0.545494
vt 0.466173 0.896924
vt 0.789327 0.572863
vt 0.783108 0.548817
vt 0.783108 0.572863
vt 0.776359 0.550864
vt 0.476096 0.880963
vt 0.482312 0.883675
vt 0.476095 0.886999
vt 0.763985 0.432611
vt 0.770204 0.408566
vt 0.770204 0.432611
vt 0.776952 0.410612
vt 0.763985 0.405243
vt 0.968154 0.085855
vt 0.906222 0.027401
vt 0.968154 0.027401
vt 0.639772 0.880936
vt 0.639772 0.942445
vt 0.776359 0.572863
vt 0.769342 0.551554
vt 0.378354 0.586574
vt 0.378354 0.592818
vt 0.231173 0.586574
vt 0.932522 0.928421
vt 0.905798 0.869967
vt 0.932522 0.869967
vt 0.575400 0.880936
vt 0.575400 0.942445
vt 0.600395 0.592818
vt 0.658850 0.586574
vt 0.658850 0.592818
vt 0.988837 0.092099
vt 0.979006 0.027401
vt 0.988837 0.027401
vt 0.805314 0.453907
vt 0.994574 0.812965
vt 0.985217 0.748266
vt 0.994574 0.748266
vt 0.482313 0.880955
vt 0.712141 0.913035
vt 0.684731 0.854581
vt 0.712141 0.854581
vt 0.673880 0.798453
vt 0.602756 0.726821
vt 0.673880 0.726821
vt 0.790914 0.812321
vt 0.734399 0.740689
vt 0.790914 0.740689
vt 0.575400 0.956455
vt 0.101983 0.906474
vt 0.518602 0.586574
vt 0.577056 0.592818
vt 0.518602 0.592818
vt 0.594151 0.651272
vt 0.600395 0.651272
vt 0.826240 0.715970
vt 0.816882 0.651272
vt 0.826240 0.651272
vt 0.933632 0.399829
vt 0.906222 0.341374
vt 0.933632 0.341374
vt 0.985841 0.570812
vt 0.959117 0.512358
vt 0.985841 0.512358
vt 0.077058 0.586574
vt 0.018603 0.599751
vt 0.005426 0.586574
vt 0.658206 0.077058
vt 0.586574 0.005426
vt 0.658206 0.005426
vt 0.005426 0.658206
vt 0.715970 0.378354
vt 0.709726 0.378354
vt 0.583300 0.651272
vt 0.577056 0.651272
vt 0.726880 0.313658
vt 0.747997 0.375165
vt 0.726880 0.375166
vt 0.460113 0.916909
vt 0.438805 0.916909
vt 0.726873 0.382360
vt 0.726859 0.395323
vt 0.894947 0.880503
vt 0.863105 0.870012
vt 0.894947 0.869967
vt 0.867579 0.885954
vt 0.894947 0.885954
vt 0.894947 0.898921
vt 0.873639 0.905939
vt 0.857656 0.870019
vt 0.857657 0.876029
vt 0.863106 0.880503
vt 0.470646 0.880970
vt 0.159541 0.658206
vt 0.172719 0.599751
vt 0.172719 0.658206
vt 0.234272 0.812321
vt 0.290788 0.740689
vt 0.290788 0.812321
vt 0.740689 0.231173
vt 0.811813 0.159541
vt 0.811813 0.231173
vt 0.891751 0.666473
vt 0.953683 0.608019
vt 0.953683 0.666473
vt 0.436808 0.592818
vt 0.443053 0.651272
vt 0.436808 0.651272
vt 0.592818 0.319900
vt 0.823172 0.070124
vt 0.833004 0.005426
vt 0.833004 0.070124
vt 0.507103 0.930675
vt 0.529102 0.923927
vt 0.531148 0.930675
vt 0.134168 0.913223
vt 0.155503 0.920240
vt 0.134168 0.920240
vt 0.801765 0.816207
vt 0.823100 0.822510
vt 0.801765 0.822510
vt 0.809407 0.432611
vt 0.841087 0.400772
vt 0.841119 0.432613
vt 0.813880 0.395321
vt 0.841081 0.395323
vt 0.801765 0.802197
vt 0.823100 0.809408
vt 0.801765 0.809408
vt 0.134168 0.900255
vt 0.155503 0.894804
vt 0.155503 0.900255
vt 0.134168 0.906474
vt 0.155503 0.913223
vt 0.823100 0.828074
vt 0.801765 0.828074
vt 0.026760 0.963524
vt 0.005505 0.956315
vt 0.026760 0.956312
vt 0.586573 0.522606
vt 0.607907 0.515416
vt 0.608598 0.522609
vt 0.507104 0.952803
vt 0.538943 0.942346
vt 0.538944 0.952848
vt 0.586573 0.535569
vt 0.610645 0.529355
vt 0.613969 0.535572
vt 0.790988 0.432611
vt 0.790988 0.410612
vt 0.220427 0.913222
vt 0.586573 0.572860
vt 0.618443 0.541022
vt 0.618443 0.572863
vt 0.199092 0.913222
vt 0.220427 0.906474
vt 0.199092 0.906474
vt 0.220427 0.900255
vt 0.851438 0.941852
vt 0.844694 0.941221
vt 0.851440 0.939174
vt 0.199092 0.900255
vt 0.220427 0.894804
vt 0.586573 0.529352
vt 0.026760 0.982188
vt 0.005426 0.976624
vt 0.026760 0.976624
vt 0.586573 0.541019
vt 0.026760 0.970322
vt 0.005426 0.963524
vt 0.872948 0.912957
vt 0.894947 0.919705
vt 0.870902 0.919705
vt 0.841075 0.389106
vt 0.819251 0.382358
vt 0.841068 0.382360
vt 0.844692 0.941843
vt 0.837498 0.941833
vt 0.557356 0.952190
vt 0.564549 0.952882
vt 0.557356 0.952872
vt 0.507103 0.936894
vt 0.534471 0.936894
vt 0.623894 0.545494
vt 0.623894 0.572863
vt 0.507104 0.942346
vt 0.630113 0.548817
vt 0.630113 0.572863
vt 0.636861 0.550864
vt 0.636861 0.572863
vt 0.550610 0.950143
vt 0.544394 0.952855
vt 0.544393 0.946819
vt 0.803955 0.432611
vt 0.797736 0.408566
vt 0.803955 0.405243
vt 0.797736 0.432611
vt 0.809407 0.400770
vt 0.906222 0.144310
vt 0.968154 0.144310
vt 0.026760 0.894804
vt 0.643879 0.551554
vt 0.643879 0.572863
vt 0.443053 0.586574
vt 0.159541 0.586574
vt 0.905798 0.986875
vt 0.932522 0.986875
vt 0.823100 0.740689
vt 0.823100 0.802197
vt 0.717304 0.592818
vt 0.723548 0.586574
vt 0.979006 0.156798
vt 0.988837 0.156798
vt 0.586573 0.515412
vt 0.607907 0.453907
vt 0.985217 0.877663
vt 0.994574 0.877663
vt 0.550611 0.952863
vt 0.684731 0.971489
vt 0.712141 0.971489
vt 0.602756 0.870085
vt 0.673880 0.870085
vt 0.734399 0.883953
vt 0.790914 0.883953
vt 0.823100 0.816207
vt 0.155503 0.906474
vt 0.460148 0.592818
vt 0.723548 0.651272
vt 0.717304 0.651272
vt 0.982744 0.347618
vt 0.992101 0.282920
vt 0.992101 0.347618
vt 0.684732 0.785276
vt 0.712141 0.726821
vt 0.712141 0.785276
vt 0.381956 0.915084
vt 0.408680 0.856630
vt 0.408680 0.915084
vt 0.135512 0.599751
vt 0.077058 0.599751
vt 0.729838 0.005426
vt 0.148690 0.658206
vt 0.148690 0.586574
vt 0.586574 0.378354
vt 0.586574 0.313656
vt 0.453904 0.651272
vt 0.453904 0.586574
vt 0.819943 0.375165
vt 0.841061 0.313658
vt 0.841061 0.375166
vt 0.507103 0.923927
vt 0.528411 0.916909
vt 0.817204 0.389104
vt 0.863105 0.941866
vt 0.894947 0.931376
vt 0.894947 0.941912
vt 0.867579 0.925925
vt 0.863106 0.931376
vt 0.894947 0.925925
vt 0.894947 0.912957
vt 0.894947 0.905939
vt 0.857656 0.941860
vt 0.857657 0.935849
vt 0.289627 0.716660
vt 0.289627 0.658206
vt 0.223422 0.740689
vt 0.509929 0.726821
vt 0.953683 0.735778
vt 0.319900 0.709726
vt 0.709726 0.436808
vt 0.651272 0.443053
vt 0.651272 0.436808
vt 0.832496 0.159541
vt 0.438806 0.930675
vt 0.460804 0.923927
vt 0.462850 0.930675
vt 0.123317 0.927258
vt 0.607586 0.956455
vt 0.628921 0.962757
vt 0.607586 0.962757
vt 0.396241 0.845777
vt 0.427921 0.813938
vt 0.427954 0.845778
vt 0.400715 0.808486
vt 0.427915 0.808488
vt 0.607586 0.942445
vt 0.628921 0.949656
vt 0.607586 0.949656
vt 0.123317 0.940226
vt 0.101983 0.945677
vt 0.101983 0.940226
vt 0.123317 0.934007
vt 0.101983 0.927258
vt 0.628921 0.968322
vt 0.607586 0.968322
vt 0.058946 0.963524
vt 0.037690 0.956315
vt 0.058946 0.956312
vt 0.712036 0.522606
vt 0.733369 0.515416
vt 0.734060 0.522609
vt 0.438807 0.952803
vt 0.470645 0.942346
vt 0.470646 0.952848
vt 0.712036 0.535569
vt 0.736107 0.529355
vt 0.739431 0.535572
vt 0.377823 0.845777
vt 0.370805 0.824468
vt 0.377823 0.823777
vt 0.166906 0.920240
vt 0.188241 0.913222
vt 0.188241 0.920240
vt 0.712036 0.572860
vt 0.743905 0.541022
vt 0.743905 0.572863
vt 0.166906 0.913222
vt 0.188241 0.906474
vt 0.166906 0.906474
vt 0.188241 0.900255
vt 0.327596 0.928515
vt 0.320851 0.927884
vt 0.327598 0.925837
vt 0.166906 0.900255
vt 0.188241 0.894804
vt 0.712036 0.529352
vt 0.058946 0.982188
vt 0.037611 0.976624
vt 0.058946 0.976624
vt 0.712036 0.541019
vt 0.058946 0.970322
vt 0.037611 0.963524
vt 0.349106 0.899620
vt 0.371105 0.906368
vt 0.347059 0.906368
vt 0.427909 0.802271
vt 0.406086 0.795523
vt 0.427902 0.795525
vt 0.320850 0.928505
vt 0.313656 0.928496
vt 0.489058 0.952190
vt 0.496252 0.952882
vt 0.489058 0.952872
vt 0.438806 0.936894
vt 0.466173 0.936894
vt 0.749356 0.545494
vt 0.749356 0.572863
vt 0.438806 0.942346
vt 0.755575 0.548817
vt 0.755575 0.572863
vt 0.762324 0.550864
vt 0.762324 0.572863
vt 0.482312 0.950143
vt 0.476096 0.952855
vt 0.476095 0.946819
vt 0.390790 0.845777
vt 0.384571 0.821731
vt 0.390790 0.818408
vt 0.384571 0.845777
vt 0.396241 0.813936
vt 0.906222 0.272069
vt 0.968154 0.213615
vt 0.968154 0.272069
vt 0.058946 0.894804
vt 0.769342 0.572863
vt 0.378354 0.715970
vt 0.313656 0.715970
vt 0.231173 0.729838
vt 0.302805 0.729838
vt 0.943373 0.986875
vt 0.970097 0.928421
vt 0.970097 0.986875
vt 0.628921 0.880936
vt 0.628921 0.942445
vt 0.600395 0.709726
vt 0.658850 0.715970
vt 0.594151 0.715970
vt 0.964534 0.737415
vt 0.974366 0.672717
vt 0.974366 0.737415
vt 0.712036 0.515412
vt 0.733369 0.453907
vt 0.985217 0.737415
vt 0.994574 0.672717
vt 0.994574 0.737415
vt 0.482313 0.952863
vt 0.944483 0.399829
vt 0.971893 0.341374
vt 0.971893 0.399829
vt 0.520780 0.870085
vt 0.591905 0.798453
vt 0.591905 0.870085
vt 0.891750 0.597168
vt 0.948265 0.525536
vt 0.948265 0.597168
vt 0.628921 0.956455
vt 0.101983 0.934007
vt 0.577056 0.709726
vt 0.518602 0.715970
vt 0.518602 0.709726
vt 0.826240 0.586573
vt 0.933632 0.282920
vt 0.985841 0.453904
vt 0.077058 0.729838
vt 0.018603 0.716660
vt 0.077058 0.716660
vt 0.586574 0.148690
vt 0.658206 0.148690
vt 0.005426 0.729838
vt 0.715970 0.443053
vt 0.583300 0.715970
vt 0.406777 0.788330
vt 0.427895 0.726823
vt 0.427895 0.788332
vt 0.438805 0.923927
vt 0.404039 0.802269
vt 0.339263 0.928529
vt 0.371105 0.918039
vt 0.371105 0.928575
vt 0.343736 0.912587
vt 0.339264 0.918039
vt 0.371105 0.912587
vt 0.371105 0.899620
vt 0.349797 0.892602
vt 0.371105 0.892602
vt 0.333813 0.928523
vt 0.333815 0.922512
vt 0.172719 0.716660
vt 0.159541 0.729838
vt 0.290788 0.883953
vt 0.811813 0.302805
vt 0.953683 0.724927
vt 0.436808 0.709726
vt 0.592818 0.436808
vt 0.833004 0.134822
vt 0.507103 0.903143
vt 0.529102 0.909891
vt 0.507103 0.909891
vt 0.134168 0.927258
vt 0.801765 0.920746
vt 0.823100 0.914443
vt 0.823100 0.920746
vt 0.345368 0.845777
vt 0.313688 0.813938
vt 0.345368 0.813936
vt 0.340895 0.808486
vt 0.801765 0.907645
vt 0.823100 0.900434
vt 0.823100 0.907645
vt 0.134168 0.940226
vt 0.155503 0.945677
vt 0.134168 0.945677
vt 0.155503 0.927258
vt 0.134168 0.934007
vt 0.801765 0.926310
vt 0.823100 0.926310
vt 0.069797 0.963524
vt 0.091052 0.956315
vt 0.091132 0.963524
vt 0.701185 0.522606
vt 0.679852 0.515416
vt 0.701185 0.515412
vt 0.507104 0.881016
vt 0.538943 0.891473
vt 0.507104 0.891473
vt 0.701185 0.535569
vt 0.677114 0.529355
vt 0.701185 0.529352
vt 0.363787 0.845777
vt 0.370805 0.845777
vt 0.188241 0.927258
vt 0.669316 0.541022
vt 0.701185 0.572860
vt 0.669316 0.572863
vt 0.188241 0.934006
vt 0.166906 0.927258
vt 0.188241 0.940226
vt 0.166906 0.934006
vt 0.320851 0.857321
vt 0.327596 0.856690
vt 0.327598 0.859368
vt 0.188241 0.945677
vt 0.166906 0.940226
vt 0.679161 0.522609
vt 0.069797 0.982188
vt 0.091132 0.976624
vt 0.091132 0.982188
vt 0.701185 0.541019
vt 0.673789 0.535572
vt 0.069797 0.970322
vt 0.069797 0.976624
vt 0.091132 0.970322
vt 0.371105 0.878836
vt 0.349106 0.885584
vt 0.347059 0.878836
vt 0.313700 0.802271
vt 0.335523 0.795523
vt 0.337570 0.802269
vt 0.313656 0.856709
vt 0.320850 0.856699
vt 0.557356 0.881628
vt 0.557356 0.880946
vt 0.564549 0.880936
vt 0.507103 0.896924
vt 0.531148 0.903143
vt 0.663864 0.545494
vt 0.534471 0.896924
vt 0.663864 0.572863
vt 0.657645 0.548817
vt 0.657645 0.572863
vt 0.650897 0.550864
vt 0.544394 0.880963
vt 0.550610 0.883675
vt 0.544393 0.886999
vt 0.350819 0.845777
vt 0.357039 0.821731
vt 0.357039 0.845777
vt 0.363787 0.823777
vt 0.350819 0.818408
vt 0.906222 0.155161
vt 0.968154 0.155161
vt 0.069797 0.894804
vt 0.069797 0.956312
vt 0.650897 0.572863
vt 0.378354 0.709726
vt 0.943373 0.869967
vt 0.970097 0.869967
vt 0.801765 0.838925
vt 0.801765 0.900434
vt 0.717304 0.709726
vt 0.658850 0.709726
vt 0.964534 0.608019
vt 0.974366 0.608019
vt 0.679852 0.453907
vt 0.985217 0.608019
vt 0.994574 0.608019
vt 0.550611 0.880955
vt 0.944483 0.282920
vt 0.971893 0.282920
vt 0.520780 0.726821
vt 0.591905 0.726821
vt 0.891750 0.453904
vt 0.948265 0.453904
vt 0.801765 0.914443
vt 0.155503 0.934007
vt 0.460148 0.709726
vt 0.992101 0.412317
vt 0.712141 0.843730
vt 0.408680 0.973538
vt 0.135512 0.716660
vt 0.148690 0.729838
vt 0.729838 0.148690
vt 0.592818 0.378354
vt 0.460148 0.651272
vt 0.313714 0.726823
vt 0.334832 0.788330
vt 0.313714 0.788332
vt 0.507102 0.916909
vt 0.313707 0.795525
vt 0.313694 0.808488
vt 0.371105 0.867166
vt 0.339263 0.856675
vt 0.371105 0.856630
vt 0.343736 0.872617
vt 0.371105 0.872617
vt 0.371105 0.885584
vt 0.333813 0.856682
vt 0.333815 0.862692
vt 0.339264 0.867166
vt 0.538944 0.880970
vt 0.837498 0.656510
vt 0.851762 0.600611
vt 0.851620 0.656510
vt 0.837640 0.600611
vt 0.852181 0.546860
vt 0.838059 0.546860
vt 0.852861 0.497323
vt 0.838739 0.497323
vt 0.853777 0.453903
vt 0.881249 0.432613
vt 0.894458 0.389194
vt 0.895371 0.432613
vt 0.880336 0.389194
vt 0.893780 0.339657
vt 0.879658 0.339657
vt 0.893362 0.285906
vt 0.879240 0.285906
vt 0.893221 0.230007
vt 0.879099 0.230007
vt 0.893362 0.174108
vt 0.879240 0.174108
vt 0.893780 0.120358
vt 0.879658 0.120358
vt 0.894458 0.070821
vt 0.880336 0.070821
vt 0.895371 0.027401
vt 0.854126 0.432613
vt 0.867333 0.389194
vt 0.868248 0.432613
vt 0.853211 0.389194
vt 0.866652 0.339657
vt 0.852530 0.339657
vt 0.866234 0.285906
vt 0.852111 0.285906
vt 0.866092 0.230007
vt 0.851970 0.230007
vt 0.866234 0.174108
vt 0.852111 0.174108
vt 0.866652 0.120358
vt 0.852530 0.120358
vt 0.867333 0.070821
vt 0.853211 0.070821
vt 0.868248 0.027401
vt 0.866777 0.859116
vt 0.879987 0.815696
vt 0.880900 0.859116
vt 0.865865 0.815696
vt 0.879309 0.766159
vt 0.865186 0.766159
vt 0.878891 0.712408
vt 0.864769 0.712408
vt 0.878750 0.656509
vt 0.864628 0.656509
vt 0.878891 0.600611
vt 0.864769 0.600611
vt 0.879308 0.546860
vt 0.865186 0.546860
vt 0.879987 0.497323
vt 0.865865 0.497323
vt 0.880900 0.453903
vt 0.839654 0.859116
vt 0.852861 0.815696
vt 0.853777 0.859116
vt 0.838739 0.815696
vt 0.852181 0.766159
vt 0.108802 0.069085
vt 0.512063 0.108802
vt 0.472346 0.512063
vt 0.838059 0.766159
vt 0.851762 0.712408
vt 0.837640 0.712408
vt 0.075315 0.883953
vt 0.005425 0.812321
vt 0.075315 0.740689
vt 0.812321 0.005426
vt 0.740689 0.148690
vt 0.740689 0.005426
vt 0.156055 0.883953
vt 0.086166 0.812321
vt 0.156055 0.740689
vt 0.734399 0.729838
vt 0.806031 0.586574
vt 0.806031 0.729838
vt 0.729838 0.159541
vt 0.586574 0.302805
vt 0.586574 0.159541
vt 0.166906 0.883953
vt 0.438805 0.870085
vt 0.891751 0.852687
vt 0.313656 0.586574
vt 0.715970 0.313656
vt 0.822664 0.288937
vt 0.726821 0.432613
vt 0.101983 0.900255
vt 0.199092 0.945677
vt 0.906222 0.085855
vt 0.661027 0.880939
vt 0.231173 0.599751
vt 0.905798 0.928421
vt 0.596735 0.880936
vt 0.594151 0.586574
vt 0.979006 0.092099
vt 0.826647 0.453903
vt 0.985217 0.812965
vt 0.684731 0.913035
vt 0.602756 0.798453
vt 0.734399 0.812321
vt 0.583300 0.586574
vt 0.816882 0.715970
vt 0.906222 0.399829
vt 0.959117 0.570812
vt 0.586574 0.077058
vt 0.018603 0.658206
vt 0.747997 0.313656
vt 0.234272 0.740689
vt 0.740689 0.159541
vt 0.891751 0.608019
vt 0.823172 0.005426
vt 0.134168 0.894804
vt 0.199092 0.894804
vt 0.005426 0.982188
vt 0.005426 0.970322
vt 0.005505 0.894806
vt 0.801765 0.740689
vt 0.586574 0.453903
vt 0.982744 0.282920
vt 0.684732 0.726821
vt 0.381956 0.856630
vt 0.729838 0.077058
vt 0.135512 0.658206
vt 0.819943 0.313656
vt 0.166906 0.740689
vt 0.438805 0.726821
vt 0.891751 0.735778
vt 0.822664 0.159541
vt 0.123317 0.945677
vt 0.166906 0.894804
vt 0.037611 0.982188
vt 0.037611 0.970322
vt 0.906222 0.213615
vt 0.037690 0.894806
vt 0.231173 0.716660
vt 0.943373 0.928421
vt 0.607586 0.880936
vt 0.964534 0.672717
vt 0.712036 0.453903
vt 0.985217 0.672717
vt 0.944483 0.341374
vt 0.520780 0.798453
vt 0.891750 0.525536
vt 0.816882 0.586573
vt 0.906222 0.282920
vt 0.959117 0.453904
vt 0.406777 0.726821
vt 0.234272 0.883953
vt 0.740689 0.302805
vt 0.891751 0.724927
vt 0.443053 0.715970
vt 0.586574 0.443053
vt 0.823172 0.134822
vt 0.313656 0.845778
vt 0.155503 0.940226
vt 0.166906 0.945677
vt 0.091052 0.894806
vt 0.823100 0.838925
vt 0.723548 0.715970
vt 0.701185 0.453903
vt 0.453904 0.715970
vt 0.982744 0.412317
vt 0.684732 0.843730
vt 0.381956 0.973538
vt 0.334832 0.726821
vt 0.839654 0.453903
vt 0.881249 0.027401
vt 0.854126 0.027401
vt 0.866777 0.453903
vt 0.069085 0.472346
vt 0.037879 0.425642
vt 0.005425 0.262489
vt 0.016384 0.373749
vt 0.005425 0.318659
vt 0.016384 0.207399
vt 0.037879 0.155506
vt 0.069085 0.108803
vt 0.155505 0.037879
vt 0.207399 0.016384
vt 0.262489 0.005425
vt 0.318659 0.005425
vt 0.373749 0.016384
vt 0.425642 0.037879
vt 0.472346 0.069085
vt 0.543269 0.155506
vt 0.564764 0.207399
vt 0.575722 0.262489
vt 0.575722 0.318659
vt 0.564764 0.373749
vt 0.543269 0.425642
vt 0.512064 0.472346
vt 0.425642 0.543269
vt 0.373749 0.564764
vt 0.318659 0.575722
vt 0.262489 0.575722
vt 0.207399 0.564764
vt 0.155506 0.543269
vt 0.108803 0.512064
vt 0.812321 0.148690
vt 0.734399 0.586574
vt 0.729838 0.302805
s off
f 86/1 5/2 3/3
f 3/4 96/5 86/6
f 1/7 97/8 85/9
f 10/10 88/11 90/12
f 95/13 10/14 90/15
f 67/16 9/17 70/18
f 12/19 95/20 93/21
f 101/22 31/23 100/24
f 33/25 32/26 34/27
f 23/28 22/29 24/30
f 81/31 106/32 48/33
f 106/32 46/34 48/33
f 19/35 39/36 20/37
f 28/38 25/39 26/40
f 31/41 30/42 32/26
f 25/43 24/30 26/44
f 42/45 38/46 41/47
f 109/48 39/49 35/50
f 55/51 25/52 103/53
f 107/54 22/55 108/56
f 84/57 16/58 18/59
f 54/60 15/61 16/62
f 26/63 40/64 78/65
f 52/66 53/67 54/60
f 50/68 51/69 52/66
f 41/70 104/71 43/72
f 48/73 49/74 50/68
f 108/56 20/75 109/48
f 48/76 45/77 47/78
f 106/79 24/80 107/54
f 44/81 45/77 46/82
f 44/81 41/47 43/83
f 112/84 53/85 51/86
f 108/87 42/88 44/89
f 41/70 38/90 105/91
f 19/92 105/93 38/94
f 102/95 29/96 101/22
f 78/65 28/97 26/63
f 103/53 27/98 102/95
f 77/99 30/100 28/97
f 76/101 32/102 30/100
f 80/103 21/104 23/105
f 82/106 52/107 83/108
f 83/108 54/109 84/57
f 81/31 50/110 82/106
f 71/111 9/112 10/113
f 74/114 38/46 56/115
f 75/116 34/117 32/102
f 10/14 68/118 71/119
f 5/2 60/120 3/3
f 64/121 5/122 8/123
f 72/124 39/36 38/125
f 8/126 66/127 64/128
f 65/129 11/130 12/131
f 73/132 35/50 39/49
f 67/133 13/134 14/135
f 104/136 19/92 21/104
f 63/137 7/138 6/139
f 58/140 4/141 1/142
f 60/143 2/144 3/145
f 21/146 20/37 22/29
f 29/147 28/38 30/42
f 65/148 7/149 69/150
f 92/151 8/126 91/152
f 14/153 92/154 94/155
f 6/156 87/157 89/158
f 8/159 98/160 91/161
f 61/162 6/163 4/164
f 99/165 2/166 59/167
f 6/163 97/168 4/164
f 9/17 94/169 88/170
f 7/149 93/171 87/172
f 57/173 56/174 35/175
f 100/24 33/176 36/177
f 109/178 56/174 42/88
f 107/179 44/89 46/34
f 110/180 79/181 55/182
f 49/183 110/180 111/184
f 51/86 111/184 112/84
f 113/185 15/186 53/85
f 43/72 80/187 45/188
f 45/188 79/181 47/189
f 79/190 23/105 25/52
f 181/191 118/192 193/193
f 191/194 116/195 181/196
f 192/197 114/198 180/199
f 183/200 123/201 185/202
f 123/203 190/204 185/205
f 122/206 67/16 70/18
f 190/207 125/208 188/209
f 195/210 140/211 138/212
f 141/213 142/214 143/215
f 131/216 132/217 133/218
f 176/219 200/220 149/221
f 200/220 155/222 201/223
f 148/224 128/225 129/226
f 137/227 134/228 136/229
f 139/230 140/231 141/213
f 133/218 134/232 135/233
f 151/234 147/235 165/236
f 203/237 148/238 129/239
f 164/240 134/241 174/242
f 201/243 131/244 133/245
f 179/246 16/58 163/247
f 15/61 163/248 16/62
f 149/249 135/250 173/251
f 162/252 161/253 163/248
f 160/254 159/255 161/253
f 198/256 150/257 152/258
f 158/259 157/260 159/255
f 202/261 129/239 131/244
f 157/262 154/263 155/264
f 200/265 133/245 135/250
f 154/263 153/266 155/264
f 153/266 150/267 151/234
f 162/268 206/269 160/270
f 202/271 151/272 203/273
f 150/257 199/274 147/275
f 128/276 147/277 199/278
f 196/279 138/212 136/280
f 173/251 137/281 172/282
f 197/283 136/280 134/241
f 172/282 139/284 171/285
f 171/285 141/286 170/287
f 130/288 175/289 132/290
f 177/291 161/292 159/293
f 178/294 163/247 161/292
f 176/219 159/293 157/295
f 122/296 71/111 123/297
f 147/235 169/298 165/236
f 170/287 143/299 146/300
f 123/203 68/118 124/301
f 60/120 118/192 116/302
f 118/303 64/121 121/304
f 148/224 167/305 147/306
f 121/307 66/127 126/308
f 124/309 65/129 125/310
f 144/311 168/312 148/238
f 126/313 67/133 127/314
f 128/276 198/315 130/288
f 120/316 63/137 119/317
f 117/318 58/140 114/319
f 115/320 60/143 116/321
f 129/226 130/322 131/216
f 137/227 138/323 139/230
f 120/324 65/148 69/150
f 121/307 187/325 186/326
f 187/327 127/328 189/329
f 182/330 119/331 184/332
f 193/333 121/334 186/335
f 61/162 119/336 63/337
f 115/338 99/165 59/167
f 192/339 119/336 117/340
f 122/206 189/341 127/342
f 120/324 188/343 125/344
f 165/345 166/346 144/347
f 194/348 142/349 140/211
f 203/273 165/345 144/347
f 201/223 153/350 202/271
f 174/351 204/352 164/353
f 158/354 204/352 156/355
f 205/356 160/270 206/269
f 207/357 15/186 17/358
f 175/359 152/258 154/360
f 174/351 154/360 156/355
f 132/290 174/242 134/241
f 86/1 212/361 98/362
f 96/5 210/363 86/6
f 97/8 208/364 85/9
f 88/11 217/365 90/12
f 217/366 95/13 90/15
f 216/367 270/368 273/369
f 95/20 219/370 93/21
f 289/371 238/372 236/373
f 239/374 33/25 34/27
f 229/375 230/376 231/377
f 284/378 294/379 243/380
f 294/379 249/381 295/382
f 242/383 226/384 227/385
f 235/386 232/387 234/388
f 237/389 238/390 239/374
f 231/377 232/391 233/392
f 245/393 241/394 259/395
f 297/396 242/397 227/398
f 258/399 232/400 282/401
f 295/402 229/403 231/404
f 287/405 223/406 257/407
f 222/408 257/409 223/410
f 243/411 233/412 281/413
f 256/414 255/415 257/409
f 254/416 253/417 255/415
f 292/418 244/419 246/420
f 252/421 251/422 253/417
f 296/423 227/398 229/403
f 251/424 248/425 249/426
f 294/427 231/404 233/412
f 248/425 247/428 249/426
f 247/428 244/429 245/393
f 256/430 300/431 254/432
f 296/433 245/434 297/435
f 244/419 293/436 241/437
f 226/438 241/439 293/440
f 290/441 236/373 234/442
f 281/413 235/443 280/444
f 291/445 234/442 232/400
f 280/444 237/446 279/447
f 279/447 239/448 278/449
f 228/450 283/451 230/452
f 285/453 255/454 253/455
f 286/456 257/407 255/454
f 284/378 253/455 251/457
f 216/458 274/459 217/460
f 241/394 277/461 259/395
f 278/449 34/117 37/462
f 217/366 271/463 218/464
f 263/465 212/361 210/466
f 212/467 267/468 215/469
f 242/383 275/470 241/471
f 215/472 269/473 220/474
f 218/475 268/476 219/477
f 240/478 276/479 242/397
f 220/480 270/481 221/482
f 226/438 292/483 228/450
f 214/484 266/485 213/486
f 211/487 261/488 208/489
f 209/490 263/491 210/492
f 227/385 228/493 229/375
f 235/386 236/494 237/389
f 214/495 268/496 272/497
f 215/472 92/151 91/152
f 92/154 221/498 94/155
f 87/157 213/499 89/158
f 98/160 215/500 91/161
f 264/501 213/502 266/503
f 209/504 99/165 262/505
f 97/168 213/502 211/506
f 216/367 94/169 221/507
f 214/495 93/171 219/508
f 259/509 260/510 240/511
f 288/512 33/176 238/372
f 297/435 259/509 240/511
f 295/382 247/513 296/433
f 282/514 298/515 258/516
f 252/517 298/515 250/518
f 299/519 254/432 300/431
f 301/520 222/521 224/522
f 283/523 246/420 248/524
f 282/514 248/524 250/518
f 230/452 282/401 232/400
f 181/191 306/525 304/526
f 304/527 191/194 181/196
f 302/528 192/197 180/199
f 311/529 183/200 185/202
f 190/204 311/530 185/205
f 270/368 310/531 273/369
f 313/532 190/207 188/209
f 365/533 328/534 364/535
f 142/214 329/536 143/215
f 320/537 319/538 321/539
f 360/540 370/541 341/542
f 370/541 339/543 341/542
f 316/544 332/545 317/546
f 325/547 322/548 323/549
f 328/550 327/551 329/536
f 322/552 321/539 323/553
f 335/554 331/555 334/556
f 373/557 332/558 330/559
f 348/560 322/561 367/562
f 371/563 319/564 372/565
f 363/566 223/406 225/567
f 347/568 222/408 223/410
f 323/569 333/570 357/571
f 345/572 346/573 347/568
f 343/574 344/575 345/572
f 334/576 368/577 336/578
f 341/579 342/580 343/574
f 372/565 317/581 373/557
f 341/582 338/583 340/584
f 370/585 321/586 371/563
f 337/587 338/583 339/588
f 337/587 334/556 336/589
f 376/590 346/591 344/592
f 372/593 335/594 337/595
f 334/576 331/596 369/597
f 316/598 369/599 331/600
f 366/601 326/602 365/533
f 357/571 325/603 323/569
f 367/562 324/604 366/601
f 356/605 327/606 325/603
f 355/607 329/608 327/606
f 359/609 318/610 320/611
f 361/612 345/613 362/614
f 362/614 347/615 363/566
f 360/540 343/616 361/612
f 274/459 310/617 311/618
f 353/619 331/555 349/620
f 354/621 143/299 329/608
f 311/530 271/463 274/622
f 306/525 263/465 304/526
f 267/468 306/623 309/624
f 351/625 332/545 331/626
f 309/627 269/473 267/628
f 268/476 312/629 313/630
f 352/631 330/559 332/558
f 270/481 314/632 315/633
f 368/634 316/598 318/610
f 266/485 308/635 307/636
f 261/488 305/637 302/638
f 263/491 303/639 304/640
f 318/641 317/546 319/538
f 326/642 325/547 327/551
f 268/496 308/643 272/497
f 187/325 309/627 186/326
f 315/644 187/327 189/329
f 307/645 182/330 184/332
f 309/646 193/333 186/335
f 264/501 307/647 305/648
f 99/165 303/649 262/505
f 307/647 192/339 305/648
f 310/531 189/341 183/650
f 308/643 188/343 182/651
f 350/652 349/653 330/654
f 364/535 142/349 145/655
f 373/656 349/653 335/594
f 371/657 337/595 339/543
f 374/658 358/659 348/660
f 342/661 374/658 375/662
f 344/592 375/662 376/590
f 377/663 222/521 346/591
f 336/578 359/664 338/665
f 338/665 358/659 340/666
f 358/667 320/611 322/561
f 379/668 380/669 378/670
f 381/671 382/672 380/669
f 383/673 384/674 382/672
f 385/675 386/676 384/674
f 387/677 388/678 386/679
f 389/680 390/681 388/678
f 391/682 392/683 390/681
f 393/684 394/685 392/683
f 395/686 396/687 394/685
f 397/688 398/689 396/687
f 399/690 400/691 398/689
f 401/692 402/693 400/691
f 403/694 404/695 402/696
f 405/697 406/698 404/695
f 407/699 408/700 406/698
f 409/701 410/702 408/700
f 411/703 412/704 410/702
f 413/705 414/706 412/704
f 415/707 416/708 414/706
f 417/709 418/710 416/708
f 419/711 420/712 418/713
f 421/714 422/715 420/712
f 423/716 424/717 422/715
f 425/718 426/719 424/717
f 427/720 428/721 426/719
f 429/722 430/723 428/721
f 431/724 432/725 430/723
f 433/726 434/727 432/725
f 435/728 436/729 434/730
f 437/731 438/732 436/729
f 431/733 415/734 399/735
f 439/736 440/737 438/732
f 441/738 378/670 440/737
f 444/739 442/740 445/741
f 442/742 447/743 445/744
f 447/745 443/746 446/747
f 443/748 444/749 446/750
f 447/751 444/752 445/753
f 86/1 98/362 5/2
f 3/4 2/754 96/5
f 1/7 4/755 97/8
f 10/10 9/756 88/11
f 95/13 11/757 10/14
f 67/16 14/758 9/17
f 12/19 11/759 95/20
f 101/22 29/96 31/23
f 33/25 31/41 32/26
f 23/28 21/146 22/29
f 81/31 40/760 106/32
f 106/32 107/179 46/34
f 19/35 38/125 39/36
f 28/38 27/761 25/39
f 31/41 29/147 30/42
f 25/43 23/28 24/30
f 42/45 56/115 38/46
f 109/48 20/75 39/49
f 55/51 79/190 25/52
f 107/54 24/80 22/55
f 84/57 54/109 16/58
f 54/60 53/67 15/61
f 26/63 106/79 40/64
f 52/66 51/69 53/67
f 50/68 49/74 51/69
f 41/70 105/91 104/71
f 48/73 47/762 49/74
f 108/56 22/55 20/75
f 48/76 46/82 45/77
f 106/79 26/63 24/80
f 44/81 43/83 45/77
f 44/81 42/45 41/47
f 112/84 113/185 53/85
f 108/87 109/178 42/88
f 102/95 27/98 29/96
f 78/65 77/99 28/97
f 103/53 25/52 27/98
f 77/99 76/101 30/100
f 76/101 75/116 32/102
f 80/103 104/136 21/104
f 82/106 50/110 52/107
f 83/108 52/107 54/109
f 81/31 48/33 50/110
f 71/111 70/763 9/112
f 74/114 72/764 38/46
f 75/116 37/462 34/117
f 10/14 11/757 68/118
f 5/2 62/765 60/120
f 64/121 62/766 5/122
f 72/124 73/767 39/36
f 8/126 13/768 66/127
f 65/129 68/769 11/130
f 73/132 57/770 35/50
f 67/133 66/771 13/134
f 104/136 105/93 19/92
f 63/137 69/772 7/138
f 58/140 61/773 4/141
f 60/143 59/774 2/144
f 21/146 19/35 20/37
f 29/147 27/761 28/38
f 65/148 12/775 7/149
f 92/151 13/768 8/126
f 14/153 13/776 92/154
f 6/156 7/777 87/157
f 8/159 5/778 98/160
f 61/162 63/337 6/163
f 99/165 96/779 2/166
f 6/163 89/780 97/168
f 9/17 14/758 94/169
f 7/149 12/775 93/171
f 57/173 74/781 56/174
f 100/24 31/23 33/176
f 109/178 35/175 56/174
f 107/179 108/87 44/89
f 110/180 47/189 79/181
f 49/183 47/189 110/180
f 51/86 49/183 111/184
f 113/185 17/358 15/186
f 43/72 104/71 80/187
f 45/188 80/187 79/181
f 79/190 80/103 23/105
f 181/191 116/302 118/192
f 191/194 115/782 116/195
f 192/197 117/783 114/198
f 183/200 122/784 123/201
f 123/203 124/301 190/204
f 122/206 127/342 67/16
f 190/207 124/785 125/208
f 195/210 194/348 140/211
f 141/213 140/231 142/214
f 131/216 130/322 132/217
f 176/219 157/295 200/220
f 200/220 157/295 155/222
f 148/224 147/306 128/225
f 137/227 135/786 134/228
f 139/230 138/323 140/231
f 133/218 132/217 134/232
f 151/234 150/267 147/235
f 203/237 144/311 148/238
f 164/240 197/283 134/241
f 201/243 202/261 131/244
f 179/246 18/59 16/58
f 15/61 162/252 163/248
f 149/249 200/265 135/250
f 162/252 160/254 161/253
f 160/254 158/259 159/255
f 198/256 199/274 150/257
f 158/259 156/787 157/260
f 202/261 203/237 129/239
f 157/262 156/788 154/263
f 200/265 201/243 133/245
f 154/263 152/789 153/266
f 153/266 152/789 150/267
f 162/268 207/357 206/269
f 202/271 153/350 151/272
f 196/279 195/210 138/212
f 173/251 135/250 137/281
f 197/283 196/279 136/280
f 172/282 137/281 139/284
f 171/285 139/284 141/286
f 130/288 198/315 175/289
f 177/291 178/294 161/292
f 178/294 179/246 163/247
f 176/219 177/291 159/293
f 122/296 70/763 71/111
f 147/235 167/790 169/298
f 170/287 141/286 143/299
f 123/203 71/119 68/118
f 60/120 62/765 118/192
f 118/303 62/766 64/121
f 148/224 168/791 167/305
f 121/307 64/128 66/127
f 124/309 68/769 65/129
f 144/311 166/792 168/312
f 126/313 66/771 67/133
f 128/276 199/278 198/315
f 120/316 69/772 63/137
f 117/318 61/773 58/140
f 115/320 59/774 60/143
f 129/226 128/225 130/322
f 137/227 136/229 138/323
f 120/324 125/344 65/148
f 121/307 126/308 187/325
f 187/327 126/793 127/328
f 182/330 120/794 119/331
f 193/333 118/795 121/334
f 61/162 117/340 119/336
f 115/338 191/796 99/165
f 192/339 184/797 119/336
f 122/206 183/650 189/341
f 120/324 182/651 188/343
f 165/345 169/798 166/346
f 194/348 145/655 142/349
f 203/273 151/272 165/345
f 201/223 155/222 153/350
f 174/351 156/355 204/352
f 158/354 205/356 204/352
f 205/356 158/354 160/270
f 207/357 162/268 15/186
f 175/359 198/256 152/258
f 174/351 175/359 154/360
f 132/290 175/289 174/242
f 86/1 210/466 212/361
f 96/5 209/799 210/363
f 97/8 211/800 208/364
f 88/11 216/801 217/365
f 217/366 218/464 95/13
f 216/367 221/507 270/368
f 95/20 218/802 219/370
f 289/371 288/512 238/372
f 239/374 238/390 33/25
f 229/375 228/493 230/376
f 284/378 251/457 294/379
f 294/379 251/457 249/381
f 242/383 241/471 226/384
f 235/386 233/803 232/387
f 237/389 236/494 238/390
f 231/377 230/376 232/391
f 245/393 244/429 241/394
f 297/396 240/478 242/397
f 258/399 291/445 232/400
f 295/402 296/423 229/403
f 287/405 225/567 223/406
f 222/408 256/414 257/409
f 243/411 294/427 233/412
f 256/414 254/416 255/415
f 254/416 252/421 253/417
f 292/418 293/436 244/419
f 252/421 250/804 251/422
f 296/423 297/396 227/398
f 251/424 250/805 248/425
f 294/427 295/402 231/404
f 248/425 246/806 247/428
f 247/428 246/806 244/429
f 256/430 301/520 300/431
f 296/433 247/513 245/434
f 290/441 289/371 236/373
f 281/413 233/412 235/443
f 291/445 290/441 234/442
f 280/444 235/443 237/446
f 279/447 237/446 239/448
f 228/450 292/483 283/451
f 285/453 286/456 255/454
f 286/456 287/405 257/407
f 284/378 285/453 253/455
f 216/458 273/807 274/459
f 241/394 275/808 277/461
f 278/449 239/448 34/117
f 217/366 274/622 271/463
f 263/465 265/809 212/361
f 212/467 265/810 267/468
f 242/383 276/811 275/470
f 215/472 267/628 269/473
f 218/475 271/812 268/476
f 240/478 260/813 276/479
f 220/480 269/814 270/481
f 226/438 293/440 292/483
f 214/484 272/815 266/485
f 211/487 264/816 261/488
f 209/490 262/817 263/491
f 227/385 226/384 228/493
f 235/386 234/388 236/494
f 214/495 219/508 268/496
f 215/472 220/474 92/151
f 92/154 220/818 221/498
f 87/157 214/819 213/499
f 98/160 212/820 215/500
f 264/501 211/506 213/502
f 209/504 96/779 99/165
f 97/168 89/780 213/502
f 216/367 88/170 94/169
f 214/495 87/172 93/171
f 259/509 277/821 260/510
f 288/512 36/177 33/176
f 297/435 245/434 259/509
f 295/382 249/381 247/513
f 282/514 250/518 298/515
f 252/517 299/519 298/515
f 299/519 252/517 254/432
f 301/520 256/430 222/521
f 283/523 292/418 246/420
f 282/514 283/523 248/524
f 230/452 283/451 282/401
f 181/191 193/193 306/525
f 304/527 303/822 191/194
f 302/528 305/823 192/197
f 311/529 310/824 183/200
f 190/204 312/825 311/530
f 270/368 315/826 310/531
f 313/532 312/827 190/207
f 365/533 326/602 328/534
f 142/214 328/550 329/536
f 320/537 318/641 319/538
f 360/540 333/828 370/541
f 370/541 371/657 339/543
f 316/544 331/626 332/545
f 325/547 324/829 322/548
f 328/550 326/642 327/551
f 322/552 320/537 321/539
f 335/554 349/620 331/555
f 373/557 317/581 332/558
f 348/560 358/667 322/561
f 371/563 321/586 319/564
f 363/566 347/615 223/406
f 347/568 346/573 222/408
f 323/569 370/585 333/570
f 345/572 344/575 346/573
f 343/574 342/580 344/575
f 334/576 369/597 368/577
f 341/579 340/830 342/580
f 372/565 319/564 317/581
f 341/582 339/588 338/583
f 370/585 323/569 321/586
f 337/587 336/589 338/583
f 337/587 335/554 334/556
f 376/590 377/663 346/591
f 372/593 373/656 335/594
f 366/601 324/604 326/602
f 357/571 356/605 325/603
f 367/562 322/561 324/604
f 356/605 355/607 327/606
f 355/607 354/621 329/608
f 359/609 368/634 318/610
f 361/612 343/616 345/613
f 362/614 345/613 347/615
f 360/540 341/542 343/616
f 274/459 273/807 310/617
f 353/619 351/831 331/555
f 354/621 146/300 143/299
f 311/530 312/825 271/463
f 306/525 265/809 263/465
f 267/468 265/810 306/623
f 351/625 352/832 332/545
f 309/627 314/833 269/473
f 268/476 271/812 312/629
f 352/631 350/834 330/559
f 270/481 269/814 314/632
f 368/634 369/599 316/598
f 266/485 272/815 308/635
f 261/488 264/816 305/637
f 263/491 262/817 303/639
f 318/641 316/544 317/546
f 326/642 324/829 325/547
f 268/496 313/835 308/643
f 187/325 314/833 309/627
f 315/644 314/836 187/327
f 307/645 308/837 182/330
f 309/646 306/838 193/333
f 264/501 266/503 307/647
f 99/165 191/796 303/649
f 307/647 184/797 192/339
f 310/531 315/826 189/341
f 308/643 313/835 188/343
f 350/652 353/839 349/653
f 364/535 328/534 142/349
f 373/656 330/654 349/653
f 371/657 372/593 337/595
f 374/658 340/666 358/659
f 342/661 340/666 374/658
f 344/592 342/661 375/662
f 377/663 224/522 222/521
f 336/578 368/577 359/664
f 338/665 359/664 358/659
f 358/667 359/609 320/611
f 379/668 381/671 380/669
f 381/671 383/673 382/672
f 383/673 385/675 384/674
f 385/675 387/840 386/676
f 387/677 389/680 388/678
f 389/680 391/682 390/681
f 391/682 393/684 392/683
f 393/684 395/686 394/685
f 395/686 397/688 396/687
f 397/688 399/690 398/689
f 399/690 401/692 400/691
f 401/692 403/841 402/693
f 403/694 405/697 404/695
f 405/697 407/699 406/698
f 407/699 409/701 408/700
f 409/701 411/703 410/702
f 411/703 413/705 412/704
f 413/705 415/707 414/706
f 415/707 417/709 416/708
f 417/709 419/842 418/710
f 419/711 421/714 420/712
f 421/714 423/716 422/715
f 423/716 425/718 424/717
f 425/718 427/720 426/719
f 427/720 429/722 428/721
f 429/722 431/724 430/723
f 431/724 433/726 432/725
f 433/726 435/843 434/727
f 435/728 437/731 436/729
f 437/731 439/736 438/732
f 383/844 381/845 439/846
f 381/845 379/847 439/846
f 379/847 441/848 439/846
f 439/846 437/849 435/850
f 435/850 433/851 439/846
f 433/851 431/733 439/846
f 431/733 429/852 427/853
f 427/853 425/854 423/855
f 423/855 421/856 419/857
f 419/857 417/858 415/734
f 415/734 413/859 411/860
f 411/860 409/861 407/862
f 407/862 405/863 403/864
f 403/864 401/865 399/735
f 399/735 397/866 395/867
f 395/867 393/868 391/869
f 391/869 389/870 387/871
f 387/871 385/872 383/844
f 431/733 427/853 415/734
f 427/853 423/855 415/734
f 423/855 419/857 415/734
f 415/734 411/860 407/862
f 407/862 403/864 415/734
f 403/864 399/735 415/734
f 399/735 395/867 383/844
f 395/867 391/869 383/844
f 391/869 387/871 383/844
f 383/844 439/846 431/733
f 383/844 431/733 399/735
f 439/736 441/738 440/737
f 441/738 379/668 378/670
f 442/742 443/873 447/743
f 443/748 442/874 444/749
f 447/751 446/875 444/752
