# Blender v3.1.2 OBJ File: 'HeavenRush.blend'
# www.blender.org
o GlassOcean_Cube.001
v 1.000000 0.059875 -1.000000
v 0.816035 2.941934 -0.816035
v 0.816035 1.053118 -0.816035
v 0.816035 1.435890 -0.816035
v 0.816035 2.568739 -0.816035
v 0.816035 2.438063 -0.816035
v 0.816035 1.573189 -0.816035
v 0.000000 5.062061 -0.501082
v 0.000000 5.359625 -0.501082
v 0.000000 5.359625 -0.798918
v 0.501082 4.657846 -0.492537
v 0.501082 4.752053 -0.463959
v 0.501082 4.838875 -0.417552
v 0.501082 4.914974 -0.355099
v 0.501082 4.977427 -0.279000
v 0.501082 5.023834 -0.192178
v 0.501082 5.052412 -0.097972
v 0.501082 5.062061 0.000000
v 0.501082 5.359625 0.000000
v 0.798918 5.359625 0.000000
v 0.492537 4.657846 -0.501082
v 0.463959 4.752053 -0.501082
v 0.417552 4.838875 -0.501082
v 0.355099 4.914974 -0.501082
v 0.279000 4.977427 -0.501082
v 0.192178 5.023834 -0.501082
v 0.097972 5.052412 -0.501082
v 0.502186 5.359625 -0.501082
v 0.798918 5.359625 -0.097972
v 0.798918 5.359625 -0.192178
v 0.798918 5.359625 -0.279000
v 0.798918 5.359625 -0.355099
v 0.501551 4.914974 -0.501717
v 0.501458 4.838875 -0.501810
v 0.355099 5.359625 -0.798918
v 0.279000 5.359625 -0.798918
v 0.192178 5.359625 -0.798918
v 0.097972 5.359625 -0.798918
v 0.501266 5.359625 -0.097972
v 0.501480 5.359625 -0.192178
v 0.501669 5.359625 -0.279000
v 0.501853 5.359625 -0.355099
v 0.501346 4.752053 -0.501922
v 0.501219 4.657846 -0.502049
v 0.355099 5.359625 -0.501082
v 0.279000 5.359625 -0.501082
v 0.192178 5.359625 -0.501082
v 0.097972 5.359625 -0.501082
v -1.000000 0.059875 -1.000000
v -0.816035 2.941934 -0.816035
v -0.816035 1.053118 -0.816035
v -0.816035 1.435890 -0.816035
v -0.816035 2.568739 -0.816035
v -0.816035 2.438063 -0.816035
v -0.816035 1.573189 -0.816035
v -0.501082 4.657846 -0.492537
v -0.501082 4.752053 -0.463959
v -0.501082 4.838875 -0.417552
v -0.501082 4.914974 -0.355099
v -0.501082 4.977427 -0.279000
v -0.501082 5.023834 -0.192178
v -0.501082 5.052412 -0.097972
v -0.501082 5.062061 0.000000
v -0.501082 5.359625 0.000000
v -0.798918 5.359625 0.000000
v -0.492537 4.657846 -0.501082
v -0.463959 4.752053 -0.501082
v -0.417552 4.838875 -0.501082
v -0.355099 4.914974 -0.501082
v -0.279000 4.977427 -0.501082
v -0.192178 5.023834 -0.501082
v -0.097972 5.052412 -0.501082
v -0.502186 5.359625 -0.501082
v -0.798918 5.359625 -0.097972
v -0.798918 5.359625 -0.192178
v -0.798918 5.359625 -0.279000
v -0.798918 5.359625 -0.355099
v -0.501551 4.914974 -0.501717
v -0.501458 4.838875 -0.501810
v -0.355099 5.359625 -0.798918
v -0.279000 5.359625 -0.798918
v -0.192178 5.359625 -0.798918
v -0.097972 5.359625 -0.798918
v -0.501266 5.359625 -0.097972
v -0.501480 5.359625 -0.192178
v -0.501669 5.359625 -0.279000
v -0.501853 5.359625 -0.355099
v -0.501346 4.752053 -0.501922
v -0.501219 4.657846 -0.502049
v -0.355099 5.359625 -0.501082
v -0.279000 5.359625 -0.501082
v -0.192178 5.359625 -0.501082
v -0.097972 5.359625 -0.501082
v 1.000000 0.059875 1.000000
v 0.816035 2.941934 0.816035
v 0.816035 1.053118 0.816035
v 0.816035 1.435890 0.816035
v 0.816035 2.568739 0.816035
v 0.816035 2.438063 0.816035
v 0.816035 1.573189 0.816035
v 0.000000 5.062061 0.501082
v 0.000000 5.359625 0.501082
v 0.000000 5.359625 0.798918
v 0.501082 4.657846 0.492537
v 0.501082 4.752053 0.463959
v 0.501082 4.838875 0.417552
v 0.501082 4.914974 0.355099
v 0.501082 4.977427 0.279000
v 0.501082 5.023834 0.192178
v 0.501082 5.052412 0.097972
v 0.492537 4.657846 0.501082
v 0.463959 4.752053 0.501082
v 0.417552 4.838875 0.501082
v 0.355099 4.914974 0.501082
v 0.279000 4.977427 0.501082
v 0.192178 5.023834 0.501082
v 0.097972 5.052412 0.501082
v 0.502186 5.359625 0.501082
v 0.798918 5.359625 0.097972
v 0.798918 5.359625 0.192178
v 0.798918 5.359625 0.279000
v 0.798918 5.359625 0.355099
v 0.501551 4.914974 0.501717
v 0.501458 4.838875 0.501810
v 0.355099 5.359625 0.798918
v 0.279000 5.359625 0.798918
v 0.192178 5.359625 0.798918
v 0.097972 5.359625 0.798918
v 0.501266 5.359625 0.097972
v 0.501480 5.359625 0.192178
v 0.501669 5.359625 0.279000
v 0.501853 5.359625 0.355099
v 0.501346 4.752053 0.501922
v 0.501219 4.657846 0.502049
v 0.355099 5.359625 0.501082
v 0.279000 5.359625 0.501082
v 0.192178 5.359625 0.501082
v 0.097972 5.359625 0.501082
v -1.000000 0.059875 1.000000
v -0.816035 2.941934 0.816035
v -0.816035 1.053118 0.816035
v -0.816035 1.435890 0.816035
v -0.816035 2.568739 0.816035
v -0.816035 2.438063 0.816035
v -0.816035 1.573189 0.816035
v -0.501082 4.657846 0.492537
v -0.501082 4.752053 0.463959
v -0.501082 4.838875 0.417552
v -0.501082 4.914974 0.355099
v -0.501082 4.977427 0.279000
v -0.501082 5.023834 0.192178
v -0.501082 5.052412 0.097972
v -0.492537 4.657846 0.501082
v -0.463959 4.752053 0.501082
v -0.417552 4.838875 0.501082
v -0.355099 4.914974 0.501082
v -0.279000 4.977427 0.501082
v -0.192178 5.023834 0.501082
v -0.097972 5.052412 0.501082
v -0.502186 5.359625 0.501082
v -0.798918 5.359625 0.097972
v -0.798918 5.359625 0.192178
v -0.798918 5.359625 0.279000
v -0.798918 5.359625 0.355099
v -0.501551 4.914974 0.501717
v -0.501458 4.838875 0.501810
v -0.355099 5.359625 0.798918
v -0.279000 5.359625 0.798918
v -0.192178 5.359625 0.798918
v -0.097972 5.359625 0.798918
v -0.501266 5.359625 0.097972
v -0.501480 5.359625 0.192178
v -0.501669 5.359625 0.279000
v -0.501853 5.359625 0.355099
v -0.501346 4.752053 0.501922
v -0.501219 4.657846 0.502049
v -0.355099 5.359625 0.501082
v -0.279000 5.359625 0.501082
v -0.192178 5.359625 0.501082
v -0.097972 5.359625 0.501082
v 0.000000 0.000000 -4.000000
v 0.000000 0.197214 -4.000000
v 0.780361 0.000000 -3.923141
v 0.780361 0.197214 -3.923141
v 1.530734 0.000000 -3.695518
v 1.530734 0.197214 -3.695518
v 2.222281 0.000000 -3.325878
v 2.222281 0.197214 -3.325878
v 2.828427 0.000000 -2.828427
v 2.828427 0.197214 -2.828427
v 3.325878 0.000000 -2.222281
v 3.325878 0.197214 -2.222281
v 3.695518 0.000000 -1.530734
v 3.695518 0.197214 -1.530734
v 3.923141 0.000000 -0.780361
v 3.923141 0.197214 -0.780361
v 4.000000 0.000000 0.000000
v 4.000000 0.197214 0.000000
v 3.923141 0.000000 0.780361
v 3.923141 0.197214 0.780361
v 3.695518 0.000000 1.530734
v 3.695518 0.197214 1.530734
v 3.325879 0.000000 2.222281
v 3.325879 0.197214 2.222281
v 2.828427 0.000000 2.828427
v 2.828427 0.197214 2.828427
v 2.222281 0.000000 3.325879
v 2.222281 0.197214 3.325879
v 1.530734 0.000000 3.695518
v 1.530734 0.197214 3.695518
v 0.780361 0.000000 3.923141
v 0.780361 0.197214 3.923141
v -0.000000 0.000000 4.000000
v -0.000000 0.197214 4.000000
v -0.780361 0.000000 3.923141
v -0.780361 0.197214 3.923141
v -1.530734 0.000000 3.695518
v -1.530734 0.197214 3.695518
v -2.222281 0.000000 3.325878
v -2.222281 0.197214 3.325878
v -2.828427 0.000000 2.828427
v -2.828427 0.197214 2.828427
v -3.325878 0.000000 2.222282
v -3.325878 0.197214 2.222282
v -3.695518 0.000000 1.530734
v -3.695518 0.197214 1.530734
v -3.923141 0.000000 0.780362
v -3.923141 0.197214 0.780362
v -4.000000 0.000000 -0.000000
v -4.000000 0.197214 -0.000000
v -3.923141 0.000000 -0.780362
v -3.923141 0.197214 -0.780362
v -3.695518 0.000000 -1.530734
v -3.695518 0.197214 -1.530734
v -3.325879 0.000000 -2.222280
v -3.325879 0.197214 -2.222280
v -2.828428 0.000000 -2.828427
v -2.828428 0.197214 -2.828427
v -2.222281 0.000000 -3.325878
v -2.222281 0.197214 -3.325878
v -1.530734 0.000000 -3.695518
v -1.530734 0.197214 -3.695518
v -0.780361 0.000000 -3.923141
v -0.780361 0.197214 -3.923141
v 0.000000 6.201939 -1.000000
v 0.000000 6.201939 1.000000
v -0.811835 5.409594 -1.000000
v 0.811835 5.409594 -1.000000
v -0.811835 5.409594 1.000000
v 0.811835 5.409594 1.000000
v 0.811835 5.409594 -1.000000
v -0.811835 5.409594 -1.000000
v 0.000000 6.201939 -1.000000
v 0.000000 6.201939 1.000000
v 0.811835 5.409594 1.000000
v -0.811835 5.409594 1.000000
v 0.811835 5.409594 -0.929117
v -0.811835 5.409594 -0.929117
v 0.000000 6.201939 -0.929117
v -0.000000 6.201939 0.929117
v 0.811835 5.409594 0.929117
v -0.811835 5.409594 0.929117
v 1.000000 3.540260 -0.911136
v 1.000000 3.540260 0.911136
v 1.000000 3.132831 0.911136
v 1.000000 3.132831 -0.911136
v 1.000000 0.862221 -0.911136
v 1.000000 0.862221 0.911136
v 1.000000 0.250772 0.911136
v 1.000000 0.250772 -0.911136
v -0.911136 3.132831 -1.000000
v -0.911136 3.540260 -1.000000
v 0.911136 3.540260 -1.000000
v 0.911136 3.132831 -1.000000
v -0.911136 0.250772 -1.000000
v -0.911136 0.862221 -1.000000
v 0.911136 0.862221 -1.000000
v 0.911136 0.250772 -1.000000
v -1.000000 3.132831 -0.911136
v -1.000000 3.132831 0.911136
v -1.000000 3.540260 0.911136
v -1.000000 3.540260 -0.911136
v -1.000000 0.250772 -0.911136
v -1.000000 0.250772 0.911136
v -1.000000 0.862221 0.911136
v -1.000000 0.862221 -0.911136
v -0.911136 3.132831 1.000000
v 0.911136 3.132831 1.000000
v 0.911136 3.540260 1.000000
v -0.911136 3.540260 1.000000
v -0.911136 0.250772 1.000000
v 0.911136 0.250772 1.000000
v 0.911136 0.862221 1.000000
v -0.911136 0.862221 1.000000
v 0.908566 3.540260 -0.911136
v 0.908566 3.540260 0.911136
v 0.908566 3.132831 -0.911136
v 0.908566 3.132831 0.911136
v 0.908566 0.862221 -0.911136
v 0.908566 0.862221 0.911136
v 0.908566 0.250772 -0.911136
v 0.908566 0.250772 0.911136
v -0.911136 3.540260 -0.908566
v -0.911136 3.132831 -0.908566
v 0.911136 3.132831 -0.908566
v 0.911136 3.540260 -0.908566
v -0.911136 0.862221 -0.908566
v -0.911136 0.250772 -0.908566
v 0.911136 0.250772 -0.908566
v 0.911136 0.862221 -0.908566
v -0.908566 3.132831 -0.911136
v -0.908566 3.132831 0.911136
v -0.908566 3.540260 -0.911136
v -0.908566 3.540260 0.911136
v -0.908566 0.250772 0.911136
v -0.908566 0.250772 -0.911136
v -0.908566 0.862221 -0.911136
v -0.908566 0.862221 0.911136
v -0.911136 3.132831 0.908566
v 0.911136 3.132831 0.908566
v -0.911136 3.540260 0.908566
v 0.911136 3.540260 0.908566
v 0.911136 0.250772 0.908566
v -0.911136 0.250772 0.908566
v -0.911136 0.862221 0.908566
v 0.911136 0.862221 0.908566
v 1.000000 3.731157 -0.978604
v 0.978604 3.731157 -1.000000
v 0.978604 2.941934 -1.000000
v 1.000000 2.941934 -0.978604
v 0.984871 2.941934 -0.984871
v 1.000000 1.053118 -0.978604
v 0.978604 1.053118 -1.000000
v 0.984871 1.053118 -0.984871
v -0.978604 3.731157 -1.000000
v -1.000000 3.731157 -0.978604
v -1.000000 2.941934 -0.978604
v -0.978604 2.941934 -1.000000
v -0.984871 2.941934 -0.984871
v -0.978604 1.053118 -1.000000
v -1.000000 1.053118 -0.978604
v -0.984871 1.053118 -0.984871
v 0.978604 3.731157 1.000000
v 1.000000 3.731157 0.978604
v 1.000000 2.941934 0.978604
v 0.978604 2.941934 1.000000
v 0.984871 2.941934 0.984871
v 0.978604 1.053118 1.000000
v 1.000000 1.053118 0.978604
v 0.984871 1.053118 0.984871
v -1.000000 3.731157 0.978604
v -0.978604 3.731157 1.000000
v -0.978604 2.941934 1.000000
v -1.000000 2.941934 0.978604
v -0.984871 2.941934 0.984871
v -1.000000 1.053118 0.978604
v -0.978604 1.053118 1.000000
v -0.984871 1.053118 0.984871
v 0.978604 0.183305 -1.000000
v 1.000000 0.183305 -0.978604
v 1.000000 0.161908 -0.978604
v 1.000000 0.140512 -1.000000
v 0.978604 0.161908 -1.000000
v -1.000000 0.183305 -0.978604
v -0.978604 0.183305 -1.000000
v -0.978604 0.161908 -1.000000
v -1.000000 0.140512 -1.000000
v -1.000000 0.161908 -0.978604
v -1.000000 3.629124 -0.978604
v -0.978604 3.629124 -1.000000
v 0.978604 3.629124 -1.000000
v 1.000000 3.629124 -0.978604
v -0.978604 3.043967 -1.000000
v -1.000000 3.043967 -0.978604
v 1.000000 3.043967 -0.978604
v 0.978604 3.043967 -1.000000
v -1.000000 0.951085 -0.978604
v -0.978604 0.951085 -1.000000
v 0.978604 0.951085 -1.000000
v 1.000000 0.951085 -0.978604
v 0.978604 3.043967 1.000000
v 1.000000 3.043967 0.978604
v 1.000000 3.629124 0.978604
v 0.978604 3.629124 1.000000
v 1.000000 0.951085 0.978604
v 0.978604 0.951085 1.000000
v 1.000000 0.183305 0.978604
v 0.978604 0.183305 1.000000
v 0.978604 0.161908 1.000000
v 1.000000 0.140512 1.000000
v 1.000000 0.161908 0.978604
v -1.000000 3.043967 0.978604
v -0.978604 3.043967 1.000000
v -0.978604 3.629124 1.000000
v -1.000000 3.629124 0.978604
v -0.978604 0.951085 1.000000
v -1.000000 0.951085 0.978604
v -0.978604 0.183305 1.000000
v -1.000000 0.183305 0.978604
v -1.000000 0.161908 0.978604
v -1.000000 0.140512 1.000000
v -0.978604 0.161908 1.000000
v 0.903203 1.558989 -0.889004
v 0.889004 1.558989 -0.903203
v 0.889004 1.573189 -0.889004
v 0.903203 1.450090 -0.889004
v 0.889004 1.435890 -0.889004
v 0.889004 1.450090 -0.903203
v 0.903203 2.554539 -0.889004
v 0.889004 2.554539 -0.903203
v 0.889004 2.568739 -0.889004
v 0.903203 2.452263 -0.889004
v 0.889004 2.438063 -0.889004
v 0.889004 2.452263 -0.903203
v -0.903203 1.558989 -0.889004
v -0.889004 1.573189 -0.889004
v -0.889004 1.558989 -0.903203
v -0.903203 1.450090 -0.889004
v -0.889004 1.450090 -0.903203
v -0.889004 1.435890 -0.889004
v -0.903203 2.554539 -0.889004
v -0.889004 2.568739 -0.889004
v -0.889004 2.554539 -0.903203
v -0.903203 2.452263 -0.889004
v -0.889004 2.452263 -0.903203
v -0.889004 2.438063 -0.889004
v 0.889004 1.573189 0.889004
v 0.889004 1.558989 0.903203
v 0.903203 1.558989 0.889004
v 0.903203 1.450090 0.889004
v 0.889004 1.450090 0.903203
v 0.889004 1.435890 0.889004
v 0.903203 2.554539 0.889004
v 0.889004 2.568739 0.889004
v 0.889004 2.554539 0.903203
v 0.903203 2.452263 0.889004
v 0.889004 2.452263 0.903203
v 0.889004 2.438063 0.889004
v -0.903203 1.558989 0.889004
v -0.889004 1.558989 0.903203
v -0.889004 1.573189 0.889004
v -0.903203 1.450090 0.889004
v -0.889004 1.435890 0.889004
v -0.889004 1.450090 0.903203
v -0.903203 2.554539 0.889004
v -0.889004 2.554539 0.903203
v -0.889004 2.568739 0.889004
v -0.889004 2.438063 0.889004
v -0.889004 2.452263 0.903203
v -0.903203 2.452263 0.889004
v 0.951246 5.352837 -1.000000
v 0.985795 5.346852 -0.980152
v 0.980151 5.332989 -0.980152
v -0.980152 5.332989 -0.980151
v -0.985796 5.346852 -0.980151
v -0.951246 5.352837 -1.000000
v -0.014205 6.295119 -0.980152
v 0.014204 6.295119 -0.980152
v 0.000000 6.281247 -1.000000
v -0.014204 6.295119 0.980152
v 0.000000 6.281247 1.000000
v 0.014205 6.295119 0.980152
v 0.980152 5.332989 0.980151
v 0.985796 5.346852 0.980151
v 0.951246 5.352837 1.000000
v -0.951246 5.352837 1.000000
v -0.985795 5.346852 0.980152
v -0.980151 5.332989 0.980152
v 0.000000 5.062061 -0.779228
v 0.000000 5.083467 -0.798918
v 0.798793 4.657846 -0.513607
v 0.779228 4.657846 -0.492537
v 0.779228 4.752053 -0.463959
v 0.798809 4.752053 -0.485261
v 0.798826 4.838875 -0.439120
v 0.779228 4.838875 -0.417552
v 0.798918 4.927831 -0.366266
v 0.779228 4.914974 -0.355099
v 0.798918 4.999310 -0.279000
v 0.779228 4.977427 -0.279000
v 0.779228 5.023834 -0.192178
v 0.798918 5.045483 -0.192178
v 0.798918 5.073882 -0.097972
v 0.779228 5.052412 -0.097972
v 0.798918 5.083467 0.000000
v 0.779228 5.062061 0.000000
v 0.797124 4.557391 -0.780311
v 0.777308 4.557391 -0.799928
v 0.501155 4.557391 -0.521875
v 0.520772 4.557391 -0.502186
v 0.501082 4.576991 -0.500303
v 0.501109 4.577081 -0.502159
v 0.499413 4.577009 -0.501970
v 0.779228 4.557391 -0.502186
v 0.798783 4.557391 -0.523112
v 0.797860 5.359625 -0.780311
v 0.778121 5.359625 -0.799952
v 0.513607 4.657846 -0.798993
v 0.492537 4.657846 -0.779228
v 0.463959 4.752053 -0.779228
v 0.485261 4.752053 -0.798987
v 0.417552 4.838875 -0.779228
v 0.439120 4.838875 -0.798979
v 0.355099 4.914974 -0.779228
v 0.366266 4.927831 -0.798918
v 0.279000 4.977427 -0.779228
v 0.279000 4.999310 -0.798918
v 0.192178 5.045483 -0.798918
v 0.192178 5.023834 -0.779228
v 0.097972 5.052412 -0.779228
v 0.097972 5.073882 -0.798918
v 0.523113 4.557391 -0.798995
v 0.502113 4.557391 -0.779229
v 0.777308 3.698434 -0.799928
v 0.797124 3.698434 -0.780311
v 0.520772 3.698434 -0.502186
v 0.501155 3.698434 -0.521875
v 0.798783 3.698434 -0.523065
v 0.779228 3.698434 -0.502186
v 0.502113 3.698434 -0.779229
v 0.523065 3.698434 -0.798995
v 0.777669 4.914974 -0.799952
v 0.797428 4.914974 -0.780311
v 0.797363 4.838875 -0.780311
v 0.777589 4.838875 -0.799944
v 0.797296 4.752053 -0.780311
v 0.777506 4.752053 -0.799936
v 0.777404 4.657846 -0.799930
v 0.797211 4.657846 -0.780311
v -0.779228 4.657846 -0.492537
v -0.798793 4.657846 -0.513607
v -0.798809 4.752053 -0.485261
v -0.779228 4.752053 -0.463959
v -0.779228 4.838875 -0.417552
v -0.798826 4.838875 -0.439120
v -0.779228 4.914974 -0.355099
v -0.798918 4.927831 -0.366266
v -0.779228 4.977427 -0.279000
v -0.798918 4.999310 -0.279000
v -0.798918 5.045483 -0.192178
v -0.779228 5.023834 -0.192178
v -0.779228 5.052412 -0.097972
v -0.798918 5.073882 -0.097972
v -0.779228 5.062061 0.000000
v -0.798918 5.083467 0.000000
v -0.777308 4.557391 -0.799928
v -0.797124 4.557391 -0.780311
v -0.520772 4.557391 -0.502186
v -0.501155 4.557391 -0.521875
v -0.499413 4.577009 -0.501970
v -0.501109 4.577081 -0.502159
v -0.501082 4.576991 -0.500303
v -0.798783 4.557391 -0.523112
v -0.779228 4.557391 -0.502186
v -0.778121 5.359625 -0.799952
v -0.797860 5.359625 -0.780311
v -0.492537 4.657846 -0.779228
v -0.513607 4.657846 -0.798993
v -0.485261 4.752053 -0.798987
v -0.463959 4.752053 -0.779228
v -0.439120 4.838875 -0.798979
v -0.417552 4.838875 -0.779228
v -0.366266 4.927831 -0.798918
v -0.355099 4.914974 -0.779228
v -0.279000 4.999310 -0.798918
v -0.279000 4.977427 -0.779228
v -0.192178 5.023834 -0.779228
v -0.192178 5.045483 -0.798918
v -0.097972 5.073882 -0.798918
v -0.097972 5.052412 -0.779228
v -0.502113 4.557391 -0.779229
v -0.523113 4.557391 -0.798995
v -0.797124 3.698434 -0.780311
v -0.777308 3.698434 -0.799928
v -0.501155 3.698434 -0.521875
v -0.520772 3.698434 -0.502186
v -0.779228 3.698434 -0.502186
v -0.798783 3.698434 -0.523065
v -0.523065 3.698434 -0.798995
v -0.502113 3.698434 -0.779229
v -0.797428 4.914974 -0.780311
v -0.777669 4.914974 -0.799952
v -0.777589 4.838875 -0.799944
v -0.797363 4.838875 -0.780311
v -0.777506 4.752053 -0.799936
v -0.797296 4.752053 -0.780311
v -0.797211 4.657846 -0.780311
v -0.777404 4.657846 -0.799930
v 0.000000 5.083467 0.798918
v 0.000000 5.062061 0.779228
v 0.779228 4.657846 0.492537
v 0.798793 4.657846 0.513607
v 0.798809 4.752053 0.485261
v 0.779228 4.752053 0.463959
v 0.779228 4.838875 0.417552
v 0.798826 4.838875 0.439120
v 0.779228 4.914974 0.355099
v 0.798918 4.927831 0.366266
v 0.779228 4.977427 0.279000
v 0.798918 4.999310 0.279000
v 0.798918 5.045483 0.192178
v 0.779228 5.023834 0.192178
v 0.779228 5.052412 0.097972
v 0.798918 5.073882 0.097972
v 0.777308 4.557391 0.799928
v 0.797124 4.557391 0.780311
v 0.520772 4.557391 0.502186
v 0.501155 4.557391 0.521875
v 0.499413 4.577009 0.501970
v 0.501109 4.577081 0.502159
v 0.501082 4.576991 0.500303
v 0.798783 4.557391 0.523112
v 0.779228 4.557391 0.502186
v 0.778121 5.359625 0.799952
v 0.797860 5.359625 0.780311
v 0.492537 4.657846 0.779228
v 0.513607 4.657846 0.798993
v 0.485261 4.752053 0.798987
v 0.463959 4.752053 0.779228
v 0.439120 4.838875 0.798979
v 0.417552 4.838875 0.779228
v 0.366266 4.927831 0.798918
v 0.355099 4.914974 0.779228
v 0.279000 4.999310 0.798918
v 0.279000 4.977427 0.779228
v 0.192178 5.023834 0.779228
v 0.192178 5.045483 0.798918
v 0.097972 5.073882 0.798918
v 0.097972 5.052412 0.779228
v 0.502113 4.557391 0.779229
v 0.523113 4.557391 0.798995
v 0.797124 3.698434 0.780311
v 0.777308 3.698434 0.799928
v 0.501155 3.698434 0.521875
v 0.520772 3.698434 0.502186
v 0.779228 3.698434 0.502186
v 0.798783 3.698434 0.523065
v 0.523065 3.698434 0.798995
v 0.502113 3.698434 0.779229
v 0.797428 4.914974 0.780311
v 0.777669 4.914974 0.799952
v 0.777589 4.838875 0.799944
v 0.797363 4.838875 0.780311
v 0.777506 4.752053 0.799936
v 0.797296 4.752053 0.780311
v 0.797211 4.657846 0.780311
v 0.777404 4.657846 0.799930
v -0.798793 4.657846 0.513607
v -0.779228 4.657846 0.492537
v -0.779228 4.752053 0.463959
v -0.798809 4.752053 0.485261
v -0.798826 4.838875 0.439120
v -0.779228 4.838875 0.417552
v -0.798918 4.927831 0.366266
v -0.779228 4.914974 0.355099
v -0.798918 4.999310 0.279000
v -0.779228 4.977427 0.279000
v -0.779228 5.023834 0.192178
v -0.798918 5.045483 0.192178
v -0.798918 5.073882 0.097972
v -0.779228 5.052412 0.097972
v -0.797124 4.557391 0.780311
v -0.777308 4.557391 0.799928
v -0.501155 4.557391 0.521875
v -0.520772 4.557391 0.502186
v -0.501082 4.576991 0.500303
v -0.501109 4.577081 0.502159
v -0.499413 4.577009 0.501970
v -0.779228 4.557391 0.502186
v -0.798783 4.557391 0.523112
v -0.797860 5.359625 0.780311
v -0.778121 5.359625 0.799952
v -0.513607 4.657846 0.798993
v -0.492537 4.657846 0.779228
v -0.463959 4.752053 0.779228
v -0.485261 4.752053 0.798987
v -0.417552 4.838875 0.779228
v -0.439120 4.838875 0.798979
v -0.355099 4.914974 0.779228
v -0.366266 4.927831 0.798918
v -0.279000 4.977427 0.779228
v -0.279000 4.999310 0.798918
v -0.192178 5.045483 0.798918
v -0.192178 5.023834 0.779228
v -0.097972 5.052412 0.779228
v -0.097972 5.073882 0.798918
v -0.523113 4.557391 0.798995
v -0.502113 4.557391 0.779229
v -0.777308 3.698434 0.799928
v -0.797124 3.698434 0.780311
v -0.520772 3.698434 0.502186
v -0.501155 3.698434 0.521875
v -0.798783 3.698434 0.523065
v -0.779228 3.698434 0.502186
v -0.502113 3.698434 0.779229
v -0.523065 3.698434 0.798995
v -0.777669 4.914974 0.799952
v -0.797428 4.914974 0.780311
v -0.797363 4.838875 0.780311
v -0.777589 4.838875 0.799944
v -0.797296 4.752053 0.780311
v -0.777506 4.752053 0.799936
v -0.777404 4.657846 0.799930
v -0.797211 4.657846 0.780311
vt 0.275475 0.872892
vt 0.282171 0.917658
vt 0.275475 0.917658
vt 0.698110 0.988933
vt 0.691414 0.855472
vt 0.698110 0.855472
vt 0.741176 0.443344
vt 0.733706 0.300001
vt 0.741176 0.300001
vt 0.801774 0.443344
vt 0.794304 0.300001
vt 0.801774 0.300001
vt 0.001410 0.881665
vt 0.023901 0.888564
vt 0.001409 0.888564
vt 0.634560 0.842013
vt 0.627384 0.821795
vt 0.634560 0.821093
vt 0.451070 0.958998
vt 0.471442 0.953307
vt 0.471442 0.958998
vt 0.233300 0.878061
vt 0.212929 0.871107
vt 0.233300 0.871107
vt 0.735700 0.833458
vt 0.741273 0.807077
vt 0.741273 0.833458
vt 0.684533 0.790631
vt 0.665696 0.783279
vt 0.684533 0.783276
vt 0.654209 0.810400
vt 0.684533 0.842011
vt 0.653391 0.842013
vt 0.641459 0.842013
vt 0.641459 0.819014
vt 0.684533 0.809456
vt 0.659545 0.803888
vt 0.684533 0.803885
vt 0.233300 0.948320
vt 0.214451 0.885433
vt 0.233300 0.885435
vt 0.662924 0.797531
vt 0.684533 0.797528
vt 0.001411 0.859041
vt 0.033963 0.869733
vt 0.001410 0.869733
vt 0.451070 0.953307
vt 0.471442 0.946862
vt 0.366750 0.904913
vt 0.346379 0.897738
vt 0.366750 0.897738
vt 0.768882 0.833458
vt 0.761707 0.813239
vt 0.768882 0.812537
vt 0.300001 0.883663
vt 0.320372 0.877304
vt 0.320372 0.883663
vt 0.747632 0.833458
vt 0.754532 0.812537
vt 0.754532 0.833458
vt 0.747632 0.810458
vt 0.576155 0.845537
vt 0.583051 0.844892
vt 0.583053 0.847630
vt 0.366750 0.918171
vt 0.346379 0.911812
vt 0.366750 0.911812
vt 0.451070 0.939911
vt 0.451070 0.933976
vt 0.452512 0.932538
vt 0.704751 0.800905
vt 0.729546 0.795331
vt 0.734882 0.801844
vt 0.647818 0.815634
vt 0.704757 0.795333
vt 0.726167 0.788975
vt 0.704763 0.788977
vt 0.724091 0.782078
vt 0.627535 0.867535
vt 0.605043 0.874435
vt 0.602951 0.867535
vt 0.212929 0.864658
vt 0.233300 0.864658
vt 0.704718 0.833460
vt 0.212994 0.883993
vt 0.212929 0.878061
vt 0.001410 0.875306
vt 0.025993 0.881665
vt 0.300001 0.871730
vt 0.320372 0.871730
vt 0.029390 0.875306
vt 0.300001 0.890562
vt 0.320372 0.890562
vt 0.300001 0.897738
vt 0.320372 0.897738
vt 0.039535 0.858988
vt 0.045890 0.861760
vt 0.039534 0.865159
vt 0.346379 0.904913
vt 0.497448 0.939911
vt 0.517820 0.946862
vt 0.497448 0.946862
vt 0.366750 0.923745
vt 0.346379 0.918171
vt 0.452512 0.869650
vt 0.471442 0.932538
vt 0.320372 0.904913
vt 0.980284 0.870075
vt 0.973587 0.736613
vt 0.980284 0.736613
vt 0.440782 0.724002
vt 0.448252 0.867345
vt 0.440782 0.867345
vt 0.570235 0.845034
vt 0.576153 0.844901
vt 0.933620 0.120940
vt 0.961645 0.001409
vt 0.961645 0.120940
vt 0.052788 0.858970
vt 0.058707 0.859098
vt 0.052787 0.859667
vt 0.045891 0.858979
vt 0.092366 0.978493
vt 0.119689 0.858962
vt 0.119689 0.978493
vt 0.991415 0.720779
vt 0.984718 0.587317
vt 0.991415 0.587317
vt 0.665000 0.790634
vt 0.647818 0.842013
vt 0.182789 0.858962
vt 0.210111 0.978493
vt 0.182789 0.978493
vt 0.784016 0.300001
vt 0.791486 0.443344
vt 0.784016 0.443344
vt 0.830470 0.732228
vt 0.823000 0.588884
vt 0.830470 0.588884
vt 0.199824 0.736613
vt 0.263143 0.856144
vt 0.199824 0.856144
vt 0.061525 0.858962
vt 0.089548 0.978493
vt 0.061525 0.978493
vt 0.684533 0.720390
vt 0.023194 0.895740
vt 0.001409 0.895740
vt 0.704778 0.711837
vt 0.723395 0.774723
vt 0.704778 0.774725
vt 0.233300 0.858962
vt 0.212929 0.858962
vt 0.627535 0.855603
vt 0.594979 0.844877
vt 0.627535 0.844831
vt 0.599553 0.861176
vt 0.627535 0.861176
vt 0.627535 0.874435
vt 0.605750 0.881610
vt 0.589408 0.844884
vt 0.589409 0.851029
vt 0.594981 0.855603
vt 0.033964 0.858994
vt 0.998591 0.419283
vt 0.991895 0.285822
vt 0.998591 0.285822
vt 0.973977 0.001409
vt 0.980673 0.134870
vt 0.973977 0.134870
vt 0.064730 0.856144
vt 0.001409 0.736613
vt 0.064730 0.736613
vt 0.365248 0.724002
vt 0.372718 0.867345
vt 0.365248 0.867345
vt 0.822960 0.909200
vt 0.845451 0.902300
vt 0.847543 0.909200
vt 0.770328 0.568047
vt 0.777504 0.547829
vt 0.777504 0.568047
vt 0.497448 0.953307
vt 0.517820 0.958998
vt 0.497448 0.958998
vt 0.798439 0.913528
vt 0.818810 0.906574
vt 0.818810 0.913528
vt 0.787714 0.833458
vt 0.782141 0.807077
vt 0.788532 0.801844
vt 0.720355 0.523562
vt 0.739888 0.516668
vt 0.741964 0.523566
vt 0.323190 0.877304
vt 0.343561 0.883663
vt 0.323190 0.883663
vt 0.763429 0.568047
vt 0.770328 0.547127
vt 0.720355 0.535491
vt 0.745343 0.529922
vt 0.750679 0.536435
vt 0.799962 0.899203
vt 0.818810 0.836315
vt 0.818810 0.899201
vt 0.720355 0.529919
vt 0.822961 0.931823
vt 0.855513 0.921132
vt 0.855514 0.931870
vt 0.517820 0.953307
vt 0.451070 0.946862
vt 0.471442 0.939911
vt 0.761707 0.833458
vt 0.343561 0.871730
vt 0.343561 0.877304
vt 0.775782 0.833458
vt 0.775782 0.810458
vt 0.782141 0.833458
vt 0.583051 0.918328
vt 0.576155 0.917683
vt 0.583053 0.915590
vt 0.346379 0.883663
vt 0.366750 0.877304
vt 0.366750 0.883663
vt 0.720355 0.516665
vt 0.739192 0.509314
vt 0.818663 0.800905
vt 0.793868 0.795331
vt 0.818657 0.795333
vt 0.751497 0.568047
vt 0.757070 0.541668
vt 0.757070 0.568047
vt 0.797247 0.788975
vt 0.818651 0.788977
vt 0.799323 0.782078
vt 0.818643 0.782079
vt 0.605043 0.888785
vt 0.627535 0.895685
vt 0.602951 0.895685
vt 0.798439 0.919977
vt 0.818810 0.919977
vt 0.798439 0.906574
vt 0.798504 0.900642
vt 0.497448 0.932538
vt 0.516378 0.869650
vt 0.516378 0.932538
vt 0.822960 0.915558
vt 0.850941 0.915558
vt 0.720355 0.568045
vt 0.822961 0.921132
vt 0.343561 0.890562
vt 0.323190 0.890562
vt 0.343561 0.897738
vt 0.323190 0.897738
vt 0.867441 0.929105
vt 0.861085 0.931877
vt 0.861084 0.925706
vt 0.346379 0.890562
vt 0.366750 0.890562
vt 0.389939 0.904913
vt 0.369568 0.897738
vt 0.389939 0.897738
vt 0.346379 0.877304
vt 0.366750 0.871730
vt 0.818696 0.833460
vt 0.323190 0.904913
vt 0.576153 0.918319
vt 0.570235 0.918187
vt 0.880258 0.931766
vt 0.874338 0.931894
vt 0.874338 0.931198
vt 0.867441 0.931885
vt 0.517820 0.933976
vt 0.517820 0.939911
vt 0.763429 0.545048
vt 0.179971 0.978493
vt 0.152648 0.858962
vt 0.179971 0.858962
vt 0.844615 0.300001
vt 0.852085 0.443344
vt 0.844615 0.443344
vt 0.197006 0.856144
vt 0.133687 0.736613
vt 0.197006 0.736613
vt 0.552353 0.978245
vt 0.524330 0.858714
vt 0.552353 0.858714
vt 0.720355 0.446425
vt 0.739195 0.446428
vt 0.822959 0.902300
vt 0.844745 0.895125
vt 0.800019 0.774723
vt 0.818636 0.711837
vt 0.818636 0.774725
vt 0.818810 0.925673
vt 0.594979 0.918343
vt 0.627535 0.907617
vt 0.627535 0.918390
vt 0.599553 0.902044
vt 0.594981 0.907617
vt 0.627535 0.902044
vt 0.627535 0.888785
vt 0.627535 0.881610
vt 0.589408 0.918336
vt 0.589409 0.912191
vt 0.001410 0.909815
vt 0.023901 0.902915
vt 0.025993 0.909815
vt 0.620209 0.842013
vt 0.627384 0.842013
vt 0.474259 0.953307
vt 0.494631 0.958998
vt 0.474259 0.958998
vt 0.854902 0.377251
vt 0.875274 0.370297
vt 0.875274 0.377251
vt 0.787714 0.708978
vt 0.782140 0.682597
vt 0.788532 0.677364
vt 0.570235 0.797528
vt 0.589768 0.790634
vt 0.591844 0.797531
vt 0.320372 0.918171
vt 0.300001 0.911812
vt 0.320372 0.911812
vt 0.613309 0.842013
vt 0.620209 0.821093
vt 0.570235 0.809456
vt 0.595224 0.803888
vt 0.600559 0.810400
vt 0.856425 0.362926
vt 0.875274 0.300038
vt 0.875274 0.362924
vt 0.570235 0.803885
vt 0.001411 0.932438
vt 0.033963 0.921747
vt 0.033964 0.932485
vt 0.474259 0.946862
vt 0.494631 0.953307
vt 0.474259 0.939911
vt 0.494631 0.946862
vt 0.754532 0.708978
vt 0.761707 0.688759
vt 0.761707 0.708978
vt 0.300001 0.923745
vt 0.300001 0.918171
vt 0.775782 0.708978
vt 0.768882 0.688057
vt 0.775782 0.685978
vt 0.782140 0.708978
vt 0.643169 0.918328
vt 0.636273 0.917683
vt 0.643171 0.915590
vt 0.369568 0.883663
vt 0.389939 0.877304
vt 0.389939 0.883663
vt 0.570235 0.790631
vt 0.589072 0.783279
vt 0.818663 0.676425
vt 0.793868 0.670851
vt 0.818657 0.670853
vt 0.601377 0.842013
vt 0.606951 0.815634
vt 0.606951 0.842013
vt 0.797247 0.664495
vt 0.818651 0.664497
vt 0.799323 0.657598
vt 0.818643 0.657599
vt 0.665161 0.888786
vt 0.687654 0.895685
vt 0.663069 0.895685
vt 0.854902 0.383700
vt 0.875274 0.383700
vt 0.854902 0.370297
vt 0.854967 0.364365
vt 0.474259 0.932538
vt 0.493189 0.869650
vt 0.493189 0.932538
vt 0.001410 0.916173
vt 0.029390 0.916173
vt 0.570235 0.842011
vt 0.001410 0.921747
vt 0.300001 0.904913
vt 0.800019 0.650243
vt 0.818636 0.650245
vt 0.045890 0.929720
vt 0.039535 0.932492
vt 0.039534 0.926321
vt 0.369568 0.890562
vt 0.389939 0.890562
vt 0.931373 0.936175
vt 0.951744 0.929223
vt 0.951744 0.936175
vt 0.369568 0.877304
vt 0.389939 0.871730
vt 0.818696 0.708980
vt 0.704771 0.782079
vt 0.983102 0.736613
vt 0.989798 0.870075
vt 0.983102 0.870075
vt 0.799782 0.152272
vt 0.807252 0.295616
vt 0.799782 0.295616
vt 0.636271 0.918319
vt 0.630353 0.918187
vt 0.959397 0.856144
vt 0.931373 0.736613
vt 0.959397 0.736613
vt 0.058707 0.932381
vt 0.052788 0.932509
vt 0.052787 0.931813
vt 0.045891 0.932500
vt 0.149830 0.978493
vt 0.122507 0.858962
vt 0.149830 0.858962
vt 0.890484 0.917658
vt 0.883788 0.872892
vt 0.890484 0.872892
vt 0.494631 0.933976
vt 0.494631 0.939911
vt 0.613309 0.819014
vt 0.819662 0.146320
vt 0.812191 0.002976
vt 0.819662 0.002976
vt 0.570235 0.720390
vt 0.589076 0.720394
vt 0.001409 0.902915
vt 0.818636 0.587357
vt 0.875274 0.389396
vt 0.655097 0.918343
vt 0.687654 0.907617
vt 0.687654 0.918390
vt 0.659671 0.902044
vt 0.655099 0.907617
vt 0.687654 0.902044
vt 0.687654 0.888786
vt 0.665868 0.881610
vt 0.687654 0.881610
vt 0.649526 0.918336
vt 0.649528 0.912191
vt 0.822960 0.881050
vt 0.845451 0.887949
vt 0.822959 0.887949
vt 0.784679 0.568047
vt 0.784679 0.547127
vt 0.931373 0.948310
vt 0.951744 0.942620
vt 0.951744 0.948310
vt 0.256489 0.878061
vt 0.236118 0.871107
vt 0.256489 0.871107
vt 0.735700 0.708978
vt 0.741273 0.682597
vt 0.741273 0.708978
vt 0.834653 0.516665
vt 0.815816 0.509314
vt 0.834653 0.509310
vt 0.804329 0.536435
vt 0.834653 0.568045
vt 0.803511 0.568047
vt 0.791579 0.568047
vt 0.791579 0.545048
vt 0.834653 0.535491
vt 0.809664 0.529922
vt 0.834653 0.529919
vt 0.256489 0.948320
vt 0.237641 0.885433
vt 0.256489 0.885435
vt 0.813044 0.523566
vt 0.834653 0.523562
vt 0.822961 0.858426
vt 0.855513 0.869118
vt 0.822961 0.869118
vt 0.931373 0.942620
vt 0.768882 0.708978
vt 0.343561 0.911812
vt 0.323190 0.918171
vt 0.323190 0.911812
vt 0.747632 0.708978
vt 0.754532 0.688057
vt 0.747632 0.685978
vt 0.636273 0.845537
vt 0.643169 0.844892
vt 0.643171 0.847630
vt 0.389939 0.918171
vt 0.369568 0.911812
vt 0.389939 0.911812
vt 0.931373 0.929223
vt 0.931373 0.923289
vt 0.932815 0.921850
vt 0.704751 0.676425
vt 0.729546 0.670851
vt 0.734882 0.677364
vt 0.797937 0.541668
vt 0.704757 0.670853
vt 0.726167 0.664495
vt 0.704763 0.664497
vt 0.724091 0.657598
vt 0.687654 0.867535
vt 0.665161 0.874435
vt 0.663069 0.867535
vt 0.236118 0.864658
vt 0.256489 0.864658
vt 0.704718 0.708980
vt 0.236183 0.883993
vt 0.236118 0.878061
vt 0.822960 0.874691
vt 0.847543 0.881050
vt 0.343561 0.923745
vt 0.323190 0.923745
vt 0.850941 0.874691
vt 0.343561 0.904913
vt 0.704771 0.657599
vt 0.723395 0.650243
vt 0.861085 0.858373
vt 0.867441 0.861145
vt 0.861084 0.864543
vt 0.369568 0.904913
vt 0.389939 0.923745
vt 0.369568 0.918171
vt 0.932815 0.858962
vt 0.951744 0.921850
vt 0.630353 0.845034
vt 0.636271 0.844901
vt 0.874338 0.858355
vt 0.880258 0.858483
vt 0.874338 0.859052
vt 0.867441 0.858364
vt 0.815120 0.516668
vt 0.797937 0.568047
vt 0.834653 0.446425
vt 0.822959 0.895125
vt 0.704778 0.587357
vt 0.704778 0.650245
vt 0.256489 0.858962
vt 0.236118 0.858962
vt 0.687654 0.855603
vt 0.655097 0.844877
vt 0.687654 0.844831
vt 0.659671 0.861177
vt 0.687654 0.861177
vt 0.687654 0.874435
vt 0.649526 0.844884
vt 0.649528 0.851029
vt 0.655099 0.855603
vt 0.855514 0.858379
vt 0.587317 0.584499
vt 0.587317 0.584499
vt 0.587317 0.584499
vt 0.730888 0.300000
vt 0.587317 0.443571
vt 0.587317 0.300000
vt 0.590135 0.584499
vt 0.590135 0.584499
vt 0.590135 0.584499
vt 0.815716 0.163445
vt 0.879534 0.222903
vt 0.873727 0.222903
vt 0.815716 0.282361
vt 0.811561 0.292572
vt 0.731715 0.295729
vt 0.660556 0.152158
vt 0.731715 0.152158
vt 0.587317 0.152158
vt 0.658476 0.295729
vt 0.587317 0.295729
vt 0.456717 0.854091
vt 0.520534 0.794633
vt 0.452561 0.864302
vt 0.456717 0.735175
vt 0.514728 0.794633
vt 0.452561 0.724965
vt 0.400766 0.871730
vt 0.405957 0.990646
vt 0.400766 0.990646
vt 0.416784 0.871731
vt 0.421976 0.931359
vt 0.416784 0.931359
vt 0.590135 0.584499
vt 0.590135 0.584499
vt 0.587317 0.584499
vt 0.587317 0.584499
vt 0.587317 0.584499
vt 0.590135 0.584499
vt 0.930803 0.120325
vt 0.872792 0.060867
vt 0.930803 0.001409
vt 0.880970 0.855529
vt 0.822959 0.796071
vt 0.880970 0.736613
vt 0.424794 0.871731
vt 0.429985 0.931359
vt 0.424794 0.931359
vt 0.437994 0.931359
vt 0.432803 0.871731
vt 0.437994 0.871731
vt 0.413967 0.931359
vt 0.408775 0.871731
vt 0.413967 0.871731
vt 0.397948 0.990646
vt 0.392757 0.871730
vt 0.397948 0.871730
vt 0.067548 0.856144
vt 0.130869 0.736613
vt 0.130869 0.856144
vt 0.389511 0.862404
vt 0.383005 0.724002
vt 0.389511 0.728943
vt 0.152272 0.587317
vt 0.297183 0.588884
vt 0.295616 0.733795
vt 0.014882 0.600791
vt 0.146320 0.587317
vt 0.134413 0.600791
vt 0.720322 0.134413
vt 0.588884 0.147887
vt 0.600791 0.134413
vt 0.587317 0.002976
vt 0.600791 0.014882
vt 0.014882 0.720322
vt 0.001409 0.588884
vt 0.801862 0.002976
vt 0.809333 0.146320
vt 0.801862 0.146320
vt 0.736613 0.001409
vt 0.744083 0.146320
vt 0.736613 0.147887
vt 0.588425 0.002517
vt 0.588884 0.001409
vt 0.146320 0.733795
vt 0.002976 0.733795
vt 0.134413 0.720322
vt 0.862504 0.002976
vt 0.869974 0.146320
vt 0.862504 0.146320
vt 0.855997 0.141379
vt 0.146779 0.588425
vt 0.147887 0.588884
vt 0.733795 0.002976
vt 0.733795 0.146320
vt 0.720322 0.014882
vt 0.745650 0.146320
vt 0.795356 0.141379
vt 0.808280 0.304942
vt 0.777510 0.438403
vt 0.826168 0.141379
vt 0.795356 0.007917
vt 0.836976 0.727287
vt 0.826168 0.007917
vt 0.793276 0.157213
vt 0.309037 0.867345
vt 0.358742 0.862404
vt 0.750589 0.141379
vt 0.744083 0.002976
vt 0.750589 0.007917
vt 0.808280 0.438403
vt 0.873312 0.588884
vt 0.836976 0.593826
vt 0.747682 0.438403
vt 0.838109 0.304942
vt 0.313976 0.862404
vt 0.307471 0.724002
vt 0.313976 0.728943
vt 0.358742 0.728943
vt 0.384572 0.724002
vt 0.434277 0.728943
vt 0.375535 0.722435
vt 0.383005 0.867345
vt 0.375535 0.868912
vt 0.777510 0.304942
vt 0.743569 0.295616
vt 0.793276 0.290674
vt 0.866806 0.727287
vt 0.873312 0.732228
vt 0.866806 0.593826
vt 0.300001 0.722435
vt 0.307471 0.867345
vt 0.300001 0.868912
vt 0.745650 0.002976
vt 0.855997 0.007917
vt 0.747682 0.304942
vt 0.743569 0.152272
vt 0.748509 0.157213
vt 0.838109 0.438403
vt 0.734532 0.150705
vt 0.742003 0.295616
vt 0.734532 0.297183
vt 0.384572 0.867345
vt 0.434277 0.862404
vt 0.748509 0.290674
vt 0.742003 0.152272
vt 0.309037 0.724002
vt 0.265961 0.736613
vt 0.295789 0.870075
vt 0.265961 0.870075
vt 0.750856 0.836278
vt 0.795621 0.969739
vt 0.750856 0.969739
vt 0.867301 0.446389
vt 0.837471 0.579850
vt 0.837471 0.446389
vt 0.928367 0.587317
vt 0.883600 0.720779
vt 0.883600 0.587317
vt 0.961014 0.720779
vt 0.931185 0.587317
vt 0.961014 0.587317
vt 0.748038 0.969739
vt 0.703272 0.836278
vt 0.748038 0.836278
vt 0.554159 0.855896
vt 0.524330 0.722435
vt 0.554159 0.722435
vt 0.928555 0.870075
vt 0.883788 0.736613
vt 0.928555 0.736613
vt 0.854902 0.392214
vt 0.861599 0.436981
vt 0.854902 0.436981
vt 0.909513 0.902722
vt 0.902817 0.872893
vt 0.909513 0.872893
vt 0.871113 0.436981
vt 0.864417 0.392214
vt 0.871113 0.392214
vt 0.921845 0.872893
vt 0.928542 0.902722
vt 0.921845 0.902722
vt 0.556977 0.857552
vt 0.563674 0.991013
vt 0.556977 0.991013
vt 0.282171 0.950304
vt 0.275475 0.920476
vt 0.282171 0.920476
vt 0.972866 0.422101
vt 0.979562 0.555563
vt 0.972866 0.555563
vt 0.973350 0.149543
vt 0.980046 0.283004
vt 0.973350 0.283004
vt 0.284989 0.872892
vt 0.291686 0.917658
vt 0.284989 0.917658
vt 0.990188 0.134870
vt 0.983491 0.001409
vt 0.990188 0.001409
vt 0.899999 0.917658
vt 0.893302 0.872892
vt 0.899999 0.872892
vt 0.989077 0.419283
vt 0.982380 0.285822
vt 0.989077 0.285822
vt 0.971159 0.134870
vt 0.964462 0.001409
vt 0.971159 0.001409
vt 0.982380 0.422101
vt 0.989077 0.555563
vt 0.982380 0.555563
vt 0.921845 0.905540
vt 0.928542 0.935369
vt 0.921845 0.935369
vt 0.912331 0.872893
vt 0.919027 0.902722
vt 0.912331 0.902722
vt 0.909513 0.935369
vt 0.902817 0.905540
vt 0.909513 0.905540
vt 0.982864 0.149543
vt 0.989561 0.283004
vt 0.982864 0.283004
vt 0.979562 0.419283
vt 0.972866 0.285822
vt 0.979562 0.285822
vt 0.975204 0.587317
vt 0.981900 0.720779
vt 0.975204 0.720779
vt 0.440812 0.919315
vt 0.447509 0.949144
vt 0.440812 0.949144
vt 0.272657 0.917659
vt 0.265961 0.872892
vt 0.272657 0.872892
vt 0.919028 0.935369
vt 0.912331 0.905540
vt 0.919028 0.905540
vt 0.440812 0.871730
vt 0.447509 0.916497
vt 0.440812 0.916497
vt 0.002976 0.587317
vt 0.002517 0.588425
vt 0.587317 0.146320
vt 0.588425 0.146779
vt 0.001409 0.732228
vt 0.002517 0.732687
vt 0.732228 0.147887
vt 0.732687 0.146779
vt 0.147887 0.732228
vt 0.146779 0.732687
vt 0.732228 0.001409
vt 0.732687 0.002517
vt 0.744043 0.147887
vt 0.742517 0.147887
vt 0.742517 0.001409
vt 0.744043 0.001409
vt 0.740436 0.150705
vt 0.741962 0.150705
vt 0.741962 0.297183
vt 0.740436 0.297183
vt 0.745609 0.147887
vt 0.801822 0.147887
vt 0.830429 0.733795
vt 0.873271 0.733795
vt 0.801822 0.001409
vt 0.873271 0.587317
vt 0.799741 0.150705
vt 0.862463 0.001409
vt 0.743528 0.297183
vt 0.799741 0.297183
vt 0.819621 0.147887
vt 0.862463 0.147887
vt 0.880782 0.732228
vt 0.880741 0.733795
vt 0.880741 0.587317
vt 0.830429 0.587317
vt 0.822959 0.587317
vt 0.822959 0.733795
vt 0.809292 0.147887
vt 0.809292 0.001409
vt 0.819621 0.001409
vt 0.869933 0.001409
vt 0.869974 0.002976
vt 0.807211 0.150705
vt 0.807252 0.152272
vt 0.812151 0.147887
vt 0.812191 0.146320
vt 0.811085 0.295102
vt 0.810070 0.294689
vt 0.810070 0.151118
vt 0.811085 0.150705
vt 0.811561 0.153235
vt 0.660556 0.295729
vt 0.659516 0.297183
vt 0.658476 0.152158
vt 0.659516 0.150705
vt 0.451070 0.722848
vt 0.452085 0.722435
vt 0.452085 0.866832
vt 0.451070 0.866419
vt 0.880511 0.223944
vt 0.879117 0.443571
vt 0.878091 0.300000
vt 0.879117 0.300000
vt 0.521512 0.793593
vt 0.992921 0.565672
vt 0.991895 0.422101
vt 0.992921 0.422101
vt 0.880511 0.221863
vt 0.521512 0.795674
vt 0.596311 0.581462
vt 0.595192 0.580542
vt 0.595289 0.580447
vt 0.600248 0.581462
vt 0.599129 0.580519
vt 0.599227 0.580441
vt 0.592374 0.581462
vt 0.591254 0.580519
vt 0.591352 0.580441
vt 0.588437 0.581462
vt 0.587318 0.580542
vt 0.587415 0.580447
vt 0.703326 0.774687
vt 0.703320 0.782042
vt 0.661364 0.797492
vt 0.657965 0.803849
vt 0.653391 0.809420
vt 0.634560 0.819482
vt 0.664164 0.783241
vt 0.663457 0.790595
vt 0.647818 0.813992
vt 0.641459 0.817389
vt 0.627384 0.820188
vt 0.725634 0.782040
vt 0.727727 0.788937
vt 0.731126 0.795294
vt 0.735700 0.800865
vt 0.754532 0.810928
vt 0.741273 0.805438
vt 0.747632 0.808836
vt 0.703309 0.795296
vt 0.703304 0.800868
vt 0.724933 0.774685
vt 0.761707 0.811634
vt 0.723398 0.711835
vt 0.703326 0.711799
vt 0.213009 0.885472
vt 0.214451 0.948318
vt 0.213009 0.948358
vt 0.665693 0.720394
vt 0.664164 0.720355
vt 0.703314 0.788939
vt 0.703272 0.833422
vt 0.820087 0.774687
vt 0.820094 0.782042
vt 0.743524 0.523526
vt 0.746923 0.529883
vt 0.751497 0.535454
vt 0.770328 0.545516
vt 0.740724 0.509275
vt 0.741431 0.516629
vt 0.757070 0.540026
vt 0.763429 0.543424
vt 0.777504 0.546223
vt 0.797780 0.782040
vt 0.795687 0.788937
vt 0.792288 0.795294
vt 0.787714 0.800865
vt 0.768882 0.810928
vt 0.782141 0.805438
vt 0.775782 0.808836
vt 0.820105 0.795296
vt 0.820110 0.800868
vt 0.798481 0.774685
vt 0.800016 0.711835
vt 0.798520 0.836278
vt 0.799962 0.836317
vt 0.740724 0.446389
vt 0.820100 0.788939
vt 0.820141 0.833422
vt 0.820087 0.650207
vt 0.820094 0.657562
vt 0.593404 0.797492
vt 0.596803 0.803849
vt 0.601377 0.809420
vt 0.620209 0.819482
vt 0.590605 0.783241
vt 0.591311 0.790595
vt 0.606951 0.813992
vt 0.613309 0.817389
vt 0.797780 0.657560
vt 0.795687 0.664457
vt 0.792288 0.670814
vt 0.787714 0.676385
vt 0.768882 0.686448
vt 0.782140 0.680958
vt 0.775782 0.684355
vt 0.820105 0.670816
vt 0.820110 0.676388
vt 0.798481 0.650205
vt 0.761707 0.687154
vt 0.800016 0.587355
vt 0.854983 0.300001
vt 0.856425 0.300040
vt 0.590605 0.720355
vt 0.820100 0.664459
vt 0.820141 0.708942
vt 0.703326 0.650207
vt 0.703320 0.657562
vt 0.811484 0.523526
vt 0.808085 0.529883
vt 0.803511 0.535454
vt 0.784679 0.545516
vt 0.814283 0.509275
vt 0.813577 0.516629
vt 0.797937 0.540026
vt 0.791579 0.543424
vt 0.725634 0.657560
vt 0.727727 0.664457
vt 0.731126 0.670814
vt 0.735700 0.676385
vt 0.754532 0.686448
vt 0.741273 0.680958
vt 0.747632 0.684355
vt 0.703309 0.670816
vt 0.703304 0.676388
vt 0.724933 0.650205
vt 0.723398 0.587355
vt 0.703326 0.587319
vt 0.236198 0.885472
vt 0.237640 0.948318
vt 0.236198 0.948358
vt 0.815813 0.446428
vt 0.814283 0.446389
vt 0.703314 0.664459
vt 0.703272 0.708942
vt 0.282171 0.872892
vt 0.691414 0.988933
vt 0.733706 0.443344
vt 0.794304 0.443344
vt 0.300001 0.877304
vt 0.346379 0.923745
vt 0.471442 0.869650
vt 0.973587 0.870075
vt 0.448252 0.724002
vt 0.570240 0.844909
vt 0.933620 0.001409
vt 0.058701 0.858962
vt 0.092366 0.858962
vt 0.984718 0.720779
vt 0.210111 0.858962
vt 0.791486 0.300001
vt 0.823000 0.732228
vt 0.263143 0.736613
vt 0.089548 0.858962
vt 0.991895 0.419283
vt 0.980673 0.001409
vt 0.001409 0.856144
vt 0.372718 0.724002
vt 0.323190 0.871730
vt 0.720355 0.509310
vt 0.497448 0.869650
vt 0.346379 0.871730
vt 0.570240 0.918311
vt 0.880251 0.931902
vt 0.152648 0.978493
vt 0.852085 0.300001
vt 0.133687 0.856144
vt 0.524330 0.978245
vt 0.798439 0.925673
vt 0.320372 0.923745
vt 0.570235 0.783276
vt 0.474259 0.869650
vt 0.369568 0.871730
vt 0.989798 0.736613
vt 0.630358 0.918311
vt 0.931373 0.856144
vt 0.058701 0.932517
vt 0.122507 0.978493
vt 0.883788 0.917658
vt 0.854902 0.389396
vt 0.343561 0.918171
vt 0.369568 0.923745
vt 0.951744 0.858962
vt 0.630358 0.844909
vt 0.880251 0.858347
vt 0.730888 0.443571
vt 0.405957 0.871730
vt 0.421976 0.871731
vt 0.429985 0.871731
vt 0.432803 0.931359
vt 0.408775 0.931359
vt 0.392757 0.990646
vt 0.067548 0.736613
vt 0.152272 0.733795
vt 0.150705 0.732228
vt 0.150705 0.588884
vt 0.295616 0.587317
vt 0.297183 0.732228
vt 0.809333 0.002976
vt 0.381439 0.722435
vt 0.381439 0.868912
vt 0.305904 0.722435
vt 0.305904 0.868912
vt 0.295789 0.736613
vt 0.795621 0.836278
vt 0.867301 0.579850
vt 0.928367 0.720779
vt 0.931185 0.720779
vt 0.703272 0.969739
vt 0.524330 0.855896
vt 0.883788 0.870075
vt 0.861599 0.392214
vt 0.902817 0.902722
vt 0.864417 0.436981
vt 0.928542 0.872893
vt 0.563674 0.857552
vt 0.275475 0.950304
vt 0.979563 0.422101
vt 0.980046 0.149543
vt 0.291686 0.872892
vt 0.983491 0.134870
vt 0.893302 0.917658
vt 0.982380 0.419283
vt 0.964462 0.134870
vt 0.989077 0.422101
vt 0.928542 0.905540
vt 0.919027 0.872893
vt 0.902817 0.935369
vt 0.989561 0.149543
vt 0.972866 0.419283
vt 0.981900 0.587317
vt 0.447509 0.919315
vt 0.265961 0.917659
vt 0.912331 0.935369
vt 0.447509 0.871730
vt 0.745609 0.001409
vt 0.743528 0.150705
vt 0.880782 0.588884
vt 0.812151 0.001409
vt 0.869933 0.147887
vt 0.807211 0.297183
vt 0.878091 0.443571
vt 0.991895 0.565672
vt 0.595192 0.580369
vt 0.596311 0.579426
vt 0.599129 0.580346
vt 0.600248 0.579426
vt 0.591255 0.580346
vt 0.592374 0.579426
vt 0.587317 0.580369
vt 0.588437 0.579426
vt 0.724933 0.711797
vt 0.798481 0.711797
vt 0.820087 0.711799
vt 0.798520 0.899163
vt 0.798481 0.587317
vt 0.820087 0.587319
vt 0.854983 0.362886
vt 0.724933 0.587317
vt 0.558045 0.723475
vt 0.566018 0.853694
vt 0.558045 0.853694
vt 0.306385 0.713233
vt 0.301041 0.588357
vt 0.306385 0.593701
vt 0.575579 0.592662
vt 0.700455 0.587317
vt 0.695110 0.592662
vt 0.712193 0.451733
vt 0.717537 0.576608
vt 0.712193 0.571264
vt 0.700454 0.717537
vt 0.695110 0.712193
vt 0.425916 0.713233
vt 0.301041 0.718577
vt 0.561033 0.713233
vt 0.436158 0.718577
vt 0.441502 0.713233
vt 0.970048 0.417081
vt 0.962560 0.286862
vt 0.970048 0.286862
vt 0.972386 0.588357
vt 0.964898 0.718577
vt 0.964898 0.588357
vt 0.436158 0.588357
vt 0.441502 0.593701
vt 0.592662 0.451733
vt 0.717537 0.446389
vt 0.871185 0.447429
vt 0.879158 0.577648
vt 0.871185 0.577648
vt 0.570235 0.717537
vt 0.575579 0.712193
vt 0.962560 0.421979
vt 0.970048 0.552199
vt 0.962560 0.552199
vt 0.587317 0.576608
vt 0.592662 0.571264
vt 0.431260 0.588357
vt 0.425916 0.593701
vt 0.566377 0.588357
vt 0.561033 0.593701
vt 0.963281 0.737653
vt 0.970770 0.867872
vt 0.963281 0.867872
vt 0.970532 0.151745
vt 0.962559 0.281964
vt 0.962559 0.151745
vt 0.436158 0.719617
vt 0.435118 0.718577
vt 0.692482 0.721395
vt 0.691414 0.721395
vt 0.692454 0.720355
vt 0.301041 0.719617
vt 0.300001 0.718577
vt 0.961492 0.286862
vt 0.962532 0.285822
vt 0.436158 0.587317
vt 0.435118 0.588357
vt 0.558017 0.854734
vt 0.556977 0.853694
vt 0.301041 0.587317
vt 0.300001 0.588357
vt 0.962532 0.553239
vt 0.961492 0.552199
vt 0.566377 0.718577
vt 0.567417 0.718577
vt 0.566377 0.719617
vt 0.692482 0.851614
vt 0.692454 0.852654
vt 0.691414 0.851614
vt 0.431260 0.719617
vt 0.431260 0.718577
vt 0.432300 0.718577
vt 0.962560 0.417081
vt 0.962532 0.418121
vt 0.961492 0.417081
vt 0.566377 0.587317
vt 0.567417 0.588357
vt 0.556977 0.723475
vt 0.558017 0.722435
vt 0.431260 0.587317
vt 0.432300 0.588357
vt 0.961492 0.421979
vt 0.962532 0.420939
vt 0.962532 0.283004
vt 0.970532 0.281964
vt 0.970505 0.283004
vt 0.964871 0.719617
vt 0.972386 0.718577
vt 0.972359 0.719617
vt 0.970505 0.150705
vt 0.972359 0.587317
vt 0.961492 0.151745
vt 0.963831 0.588357
vt 0.879131 0.446389
vt 0.879158 0.447429
vt 0.970742 0.736613
vt 0.970770 0.737653
vt 0.871158 0.578688
vt 0.879131 0.578688
vt 0.963254 0.868912
vt 0.970742 0.868912
vt 0.870118 0.447429
vt 0.870118 0.577648
vt 0.962215 0.737653
vt 0.962215 0.867872
vt 0.700454 0.851614
vt 0.700454 0.721395
vt 0.566018 0.723475
vt 0.570235 0.587317
vt 0.587317 0.446389
vt 0.970048 0.421979
vt 0.962532 0.150705
vt 0.964871 0.587317
vt 0.961492 0.281964
vt 0.963831 0.718577
vt 0.871158 0.446389
vt 0.963254 0.736613
vt 0.922517 0.357856
vt 0.937102 0.300703
vt 0.936956 0.357856
vt 0.922663 0.300703
vt 0.937536 0.245746
vt 0.923097 0.245746
vt 0.938239 0.195098
vt 0.923801 0.195098
vt 0.939187 0.150705
vt 0.917361 0.150705
vt 0.903916 0.195098
vt 0.902923 0.150705
vt 0.918354 0.195098
vt 0.904653 0.245746
vt 0.919091 0.245746
vt 0.905107 0.300703
vt 0.919546 0.300703
vt 0.905261 0.357856
vt 0.919699 0.357856
vt 0.905107 0.415009
vt 0.919546 0.415009
vt 0.904653 0.469965
vt 0.919091 0.469965
vt 0.903916 0.520613
vt 0.918354 0.520613
vt 0.902923 0.565007
vt 0.944236 0.565007
vt 0.957727 0.520613
vt 0.958674 0.565007
vt 0.943288 0.520613
vt 0.957023 0.469965
vt 0.942584 0.469965
vt 0.956590 0.415009
vt 0.942151 0.415009
vt 0.956443 0.357856
vt 0.942005 0.357856
vt 0.956590 0.300703
vt 0.942151 0.300703
vt 0.957023 0.245746
vt 0.942584 0.245746
vt 0.957727 0.195098
vt 0.943288 0.195098
vt 0.958674 0.150705
vt 0.885667 0.565007
vt 0.899113 0.520613
vt 0.900105 0.565007
vt 0.884674 0.520613
vt 0.898375 0.469965
vt 0.883937 0.469965
vt 0.897921 0.415009
vt 0.883483 0.415009
vt 0.897768 0.357856
vt 0.883329 0.357856
vt 0.897921 0.300703
vt 0.883483 0.300703
vt 0.898375 0.245746
vt 0.883937 0.245746
vt 0.899113 0.195098
vt 0.884674 0.195098
vt 0.900105 0.150705
vt 0.924748 0.565007
vt 0.938239 0.520613
vt 0.939187 0.565007
vt 0.923801 0.520613
vt 0.937536 0.469965
vt 0.107105 0.066496
vt 0.519412 0.107105
vt 0.478804 0.519412
vt 0.923097 0.469965
vt 0.937102 0.415009
vt 0.922663 0.415009
vt 0.924748 0.150705
vt 0.917361 0.565007
vt 0.944236 0.150705
vt 0.885667 0.150705
vt 0.066496 0.478804
vt 0.034590 0.431053
vt 0.001409 0.264240
vt 0.012613 0.377995
vt 0.001409 0.321669
vt 0.012613 0.207914
vt 0.034590 0.154856
vt 0.066496 0.107105
vt 0.154856 0.034590
vt 0.207914 0.012613
vt 0.264240 0.001409
vt 0.321669 0.001409
vt 0.377995 0.012613
vt 0.431053 0.034590
vt 0.478803 0.066496
vt 0.551318 0.154856
vt 0.573296 0.207913
vt 0.584499 0.264239
vt 0.584499 0.321669
vt 0.573296 0.377995
vt 0.551318 0.431053
vt 0.519412 0.478803
vt 0.431053 0.551318
vt 0.377995 0.573296
vt 0.321669 0.584499
vt 0.264240 0.584499
vt 0.207914 0.573296
vt 0.154856 0.551318
vt 0.107105 0.519412
s off
f 278/1 310/2 277/3
f 264/4 295/5 263/6
f 372/7 344/8 383/9
f 395/10 336/11 369/12
f 40/13 17/14 39/15
f 29/16 485/17 483/18
f 14/19 476/20 478/21
f 499/22 22/23 500/24
f 35/25 507/26 36/27
f 529/28 495/29 487/30
f 477/31 496/32 32/33
f 30/34 483/18 482/35
f 523/36 475/37 524/38
f 520/39 489/40 513/41
f 524/38 474/42 526/43
f 28/44 14/45 42/46
f 13/47 473/48 476/20
f 510/49 8/50 469/51
f 83/52 470/53 569/54
f 16/55 480/56 481/57
f 37/58 511/59 38/60
f 36/27 508/61 37/58
f 21/62 43/63 22/64
f 506/65 26/66 509/67
f 11/68 491/69 490/70
f 522/71 503/72 505/73
f 32/33 479/74 477/31
f 525/75 501/76 503/72
f 527/77 498/78 501/76
f 47/79 27/80 26/81
f 500/24 23/82 502/83
f 497/84 505/73 35/25
f 489/40 493/85 21/86
f 41/87 16/88 40/13
f 480/56 14/89 478/90
f 42/46 15/91 41/87
f 17/92 481/57 484/93
f 18/94 484/93 486/95
f 34/96 12/97 13/98
f 509/67 27/99 510/49
f 530/100 57/101 533/102
f 504/103 25/104 506/65
f 516/105 494/106 490/70
f 603/107 18/94 486/95
f 284/108 316/109 283/110
f 380/111 349/112 385/113
f 493/114 44/115 21/62
f 52/116 3/117 51/118
f 44/119 491/120 11/121
f 43/122 11/121 12/97
f 50/123 5/124 53/125
f 277/126 307/127 276/128
f 526/43 471/129 529/28
f 31/130 482/35 479/74
f 95/131 5/132 2/133
f 382/134 330/135 375/136
f 376/137 338/138 373/139
f 99/140 7/141 6/142
f 97/143 3/144 4/145
f 495/29 515/146 487/30
f 39/15 18/147 19/148
f 514/149 512/150 488/151
f 504/152 23/82 24/153
f 45/154 33/155 28/156
f 25/157 45/154 46/158
f 26/81 46/158 47/79
f 48/159 8/160 27/80
f 22/64 34/161 23/162
f 23/162 33/155 24/163
f 33/164 13/98 14/45
f 275/165 309/166 278/167
f 270/168 302/169 269/170
f 100/171 144/172 145/173
f 397/174 341/175 377/176
f 85/177 62/178 61/179
f 74/180 545/181 65/182
f 534/183 59/184 536/185
f 67/186 557/187 560/188
f 80/189 565/190 563/191
f 586/192 531/193 532/194
f 538/195 61/196 541/197
f 75/198 543/199 74/180
f 581/200 535/201 537/202
f 549/203 580/204 571/205
f 584/206 532/194 535/201
f 73/207 59/208 78/209
f 533/102 58/210 534/183
f 12/211 472/212 473/48
f 38/60 470/53 10/213
f 538/195 59/214 60/215
f 82/216 569/54 568/217
f 81/218 568/217 565/190
f 88/219 66/220 67/221
f 71/222 566/223 567/224
f 587/225 553/226 531/193
f 582/227 561/228 583/229
f 77/230 539/231 76/232
f 583/229 559/233 585/234
f 585/234 558/235 588/236
f 72/237 92/238 71/239
f 68/240 560/188 562/241
f 66/242 550/243 549/203
f 554/244 576/245 548/246
f 86/247 61/179 60/248
f 556/249 537/202 77/230
f 87/250 60/248 59/208
f 541/197 62/251 542/252
f 542/252 63/253 544/254
f 57/255 79/256 58/257
f 72/258 567/224 570/259
f 685/260 101/261 590/262
f 70/263 564/264 566/223
f 563/191 555/265 80/189
f 63/253 661/266 544/254
f 89/267 550/268 66/220
f 552/269 89/270 56/271
f 56/271 88/272 57/255
f 548/246 552/273 56/274
f 76/232 540/275 75/198
f 143/276 50/277 53/278
f 374/279 354/280 392/281
f 145/282 54/283 55/284
f 141/285 52/286 51/287
f 553/226 573/288 578/289
f 84/290 63/291 62/178
f 572/292 574/293 546/294
f 564/295 68/240 562/241
f 78/296 90/297 73/298
f 70/299 90/297 69/300
f 91/301 71/239 92/238
f 93/302 8/160 9/303
f 79/304 67/221 68/305
f 78/296 68/305 69/300
f 58/257 78/209 59/208
f 130/306 110/307 109/308
f 119/309 485/17 20/310
f 595/311 107/312 597/313
f 112/314 616/315 619/316
f 125/317 624/318 622/319
f 645/320 592/321 593/322
f 599/323 109/324 602/325
f 120/326 604/327 119/309
f 640/328 596/329 598/330
f 608/331 639/332 630/333
f 643/334 593/322 596/329
f 118/335 107/336 123/337
f 594/338 106/339 595/311
f 591/340 105/341 594/338
f 170/342 589/343 103/344
f 599/323 107/345 108/346
f 127/347 628/348 627/349
f 126/350 627/349 624/318
f 133/351 111/352 112/353
f 116/354 625/355 626/356
f 646/357 612/358 592/321
f 641/359 620/360 642/361
f 122/362 600/363 121/364
f 642/361 618/365 644/366
f 644/366 617/367 647/368
f 117/369 137/370 116/371
f 113/372 619/316 621/373
f 111/374 609/375 608/331
f 613/376 635/377 607/378
f 131/379 109/308 108/380
f 615/381 598/330 122/362
f 132/382 108/380 107/336
f 602/325 110/383 603/107
f 647/368 631/384 605/385
f 105/386 124/387 106/388
f 117/389 626/356 629/390
f 147/391 649/392 650/393
f 115/394 623/395 625/355
f 622/319 614/396 125/317
f 528/397 512/150 498/78
f 290/398 322/399 289/400
f 386/401 357/402 396/403
f 134/404 609/405 111/352
f 96/406 142/407 141/408
f 611/409 134/410 104/411
f 104/411 133/412 105/386
f 98/413 140/414 143/415
f 276/416 308/417 275/418
f 607/378 611/419 104/420
f 121/364 601/421 120/326
f 393/422 346/423 381/424
f 612/358 632/425 637/426
f 129/427 18/147 110/307
f 631/384 633/428 605/385
f 623/429 113/372 621/373
f 123/430 135/431 118/432
f 115/433 135/431 114/434
f 136/435 116/371 137/370
f 138/436 101/437 102/438
f 124/439 112/353 113/440
f 123/430 113/440 114/434
f 106/388 123/337 107/336
f 172/441 152/442 171/443
f 161/444 545/181 660/445
f 149/446 653/447 655/448
f 674/449 154/450 675/451
f 167/452 682/453 168/454
f 704/455 670/456 662/457
f 654/458 671/459 164/460
f 162/461 660/445 659/462
f 698/463 652/464 699/465
f 695/466 664/467 688/468
f 699/465 651/469 701/470
f 160/471 149/472 174/473
f 148/474 650/393 653/447
f 128/475 589/343 628/348
f 101/261 629/390 590/262
f 151/476 657/477 658/478
f 169/479 686/480 170/342
f 168/454 683/481 169/479
f 153/482 175/483 154/484
f 681/485 158/486 684/487
f 146/488 666/489 665/490
f 697/491 678/492 680/493
f 164/460 656/494 654/458
f 700/495 676/496 678/492
f 702/497 673/498 676/496
f 179/499 159/500 158/501
f 675/451 155/502 677/503
f 672/504 680/493 167/452
f 664/467 668/505 153/506
f 173/507 151/508 172/441
f 657/477 149/509 655/510
f 174/473 150/511 173/507
f 152/512 658/478 661/266
f 703/513 687/514 673/498
f 166/515 147/516 148/517
f 684/487 159/518 685/260
f 679/519 157/520 681/485
f 691/521 669/522 665/490
f 588/236 572/292 546/294
f 668/523 176/524 153/482
f 176/525 666/526 146/527
f 175/528 146/527 147/516
f 701/470 648/529 704/455
f 163/530 659/462 656/494
f 670/456 690/531 662/457
f 171/443 63/291 64/532
f 689/533 687/514 663/534
f 679/535 155/502 156/536
f 177/537 165/538 160/539
f 157/540 177/537 178/541
f 158/501 178/541 179/499
f 180/542 101/437 159/500
f 154/484 166/543 155/544
f 155/544 165/538 156/545
f 165/546 148/517 149/472
f 250/547 254/548 255/549
f 463/550 454/551 453/552
f 247/553 253/554 252/555
f 247/556 459/557 245/558
f 248/559 459/557 451/560
f 452/561 462/562 464/563
f 467/564 457/565 455/566
f 249/567 461/568 466/569
f 250/570 461/568 246/571
f 250/570 466/569 465/572
f 255/573 262/574 256/575
f 256/576 260/577 254/578
f 248/579 252/555 251/580
f 246/581 256/582 254/548
f 249/583 255/549 256/582
f 245/584 251/580 253/554
f 258/585 259/586 257/587
f 261/588 260/589 262/590
f 251/591 259/592 253/593
f 253/594 258/595 252/596
f 254/597 261/598 255/599
f 252/600 257/601 251/602
f 54/603 7/604 55/605
f 269/606 361/607 270/608
f 336/609 352/610 344/611
f 2/612 345/613 95/614
f 96/615 332/616 3/617
f 3/617 340/618 51/619
f 50/620 329/621 2/612
f 378/622 333/623 379/624
f 49/625 363/626 1/627
f 51/619 342/628 341/629
f 354/630 337/631 140/632
f 384/633 352/634 394/635
f 393/422 290/636 394/635
f 95/614 347/637 346/638
f 357/639 348/640 141/641
f 359/642 277/643 379/624
f 374/279 282/644 369/12
f 372/7 266/645 375/136
f 381/424 287/646 393/422
f 379/624 276/647 378/622
f 373/139 274/648 376/137
f 384/633 288/649 381/424
f 396/403 293/650 386/401
f 364/651 286/652 377/176
f 278/653 366/654 275/655
f 369/12 281/656 395/10
f 370/657 271/658 373/139
f 383/9 263/659 372/7
f 392/281 279/660 374/279
f 283/661 400/662 284/663
f 377/176 285/664 397/174
f 360/665 267/666 270/608
f 1/667 391/668 94/669
f 375/136 265/670 382/134
f 398/671 294/672 396/403
f 376/137 273/673 371/674
f 371/674 272/675 370/657
f 139/676 368/677 49/678
f 385/113 267/666 380/111
f 365/679 276/647 275/655
f 394/635 289/680 384/633
f 382/134 264/681 383/9
f 388/682 293/650 292/683
f 395/10 280/684 392/281
f 94/685 402/686 139/687
f 387/688 268/689 385/113
f 291/690 389/691 292/683
f 399/692 285/664 284/663
f 296/693 297/694 295/695
f 300/696 301/697 299/698
f 303/699 305/700 304/701
f 307/702 309/703 308/704
f 312/705 313/706 311/707
f 315/708 317/709 316/710
f 320/711 321/712 319/713
f 323/714 325/715 324/716
f 283/717 317/718 286/719
f 263/720 297/721 266/722
f 285/723 315/724 284/725
f 265/726 296/727 264/728
f 292/729 324/730 291/731
f 272/732 304/733 271/734
f 286/735 318/736 285/737
f 266/738 298/739 265/740
f 291/741 325/742 294/743
f 271/744 305/745 274/746
f 293/747 323/748 292/749
f 273/750 303/751 272/752
f 280/753 311/754 279/755
f 294/756 326/757 293/758
f 274/759 306/760 273/761
f 279/762 313/763 282/764
f 281/765 312/766 280/767
f 288/768 319/769 287/770
f 268/771 299/772 267/773
f 282/774 314/775 281/776
f 287/777 321/778 290/779
f 267/780 301/781 270/782
f 289/783 320/784 288/785
f 269/786 300/787 268/788
f 329/621 330/789 331/790
f 332/616 333/791 334/792
f 337/631 338/793 339/794
f 340/618 341/629 342/628
f 345/613 346/638 347/637
f 348/640 349/795 350/796
f 353/797 354/630 355/798
f 356/799 357/639 358/800
f 361/801 362/802 363/626
f 366/654 367/803 368/804
f 389/691 390/805 391/806
f 400/807 401/808 402/686
f 360/809 379/624 380/810
f 375/811 371/674 372/812
f 365/679 377/813 378/622
f 373/139 369/814 370/657
f 388/682 385/815 386/401
f 381/424 383/816 384/633
f 399/817 396/403 397/818
f 392/819 394/635 395/820
f 372/812 328/821 327/822
f 336/823 370/657 369/814
f 374/824 338/138 337/825
f 330/826 376/137 375/811
f 380/810 333/623 332/827
f 341/828 378/622 377/813
f 346/423 382/829 381/424
f 384/633 344/830 343/831
f 386/401 349/832 348/833
f 393/422 354/834 353/835
f 352/634 395/820 394/635
f 357/402 397/818 396/403
f 370/657 328/821 371/674
f 451/560 452/836 453/837
f 454/838 455/839 456/840
f 457/565 458/841 459/842
f 460/843 461/844 462/562
f 463/845 464/846 465/572
f 466/569 467/847 468/848
f 460/843 458/841 457/565
f 454/838 451/560 453/837
f 458/849 451/560 459/557
f 453/850 464/851 463/852
f 465/572 462/853 461/568
f 463/845 466/569 468/848
f 468/854 455/855 454/856
f 457/857 456/840 455/839
f 460/858 466/569 461/568
f 248/559 456/840 247/556
f 490/859 491/860 492/861
f 549/862 550/863 551/864
f 608/865 609/866 610/867
f 665/868 666/869 667/870
f 487/871 528/397 529/872
f 473/873 475/37 476/874
f 476/874 477/31 478/875
f 484/876 482/35 483/18
f 494/877 471/129 472/878
f 480/879 477/31 479/74
f 481/880 479/74 482/35
f 486/881 483/18 485/17
f 501/76 499/882 500/883
f 503/72 500/883 502/884
f 505/73 502/884 504/885
f 508/61 510/886 511/59
f 505/73 506/887 507/26
f 507/26 509/888 508/61
f 524/889 522/71 523/890
f 498/78 513/891 499/882
f 472/878 474/42 473/873
f 511/59 469/892 470/53
f 521/893 513/891 512/150
f 515/894 488/151 487/871
f 490/895 517/896 516/897
f 518/898 494/877 519/899
f 526/900 525/75 524/889
f 529/872 527/77 526/900
f 523/890 497/84 496/901
f 588/236 547/902 587/903
f 535/201 533/904 534/905
f 537/202 534/905 536/906
f 540/275 542/907 543/199
f 531/193 554/908 530/909
f 537/202 538/910 539/231
f 539/231 541/911 540/275
f 543/199 544/912 545/181
f 557/913 559/233 560/914
f 560/914 561/228 562/915
f 562/915 563/191 564/916
f 570/917 568/217 569/54
f 566/918 563/191 565/190
f 567/919 565/190 568/217
f 582/227 584/920 581/921
f 571/922 558/235 557/913
f 532/194 530/909 533/904
f 469/892 569/54 470/53
f 571/922 579/923 572/292
f 574/293 547/902 546/294
f 549/203 576/924 575/925
f 554/908 578/289 577/926
f 583/229 586/927 584/920
f 585/234 587/903 586/927
f 555/265 581/921 556/928
f 647/368 606/929 646/930
f 596/329 594/931 595/932
f 598/330 595/932 597/933
f 601/421 603/934 604/327
f 592/321 613/935 591/936
f 598/330 599/937 600/363
f 600/363 602/938 601/421
f 604/327 486/881 485/17
f 616/939 618/365 619/940
f 619/940 620/360 621/941
f 621/941 622/319 623/942
f 629/943 627/349 628/348
f 625/944 622/319 624/318
f 626/945 624/318 627/349
f 641/359 643/946 640/947
f 630/948 617/367 616/939
f 593/322 591/936 594/931
f 590/949 628/348 589/343
f 630/948 638/950 631/384
f 633/428 606/929 605/385
f 608/331 635/951 634/952
f 613/935 637/426 636/953
f 642/361 645/954 643/946
f 644/366 646/930 645/954
f 614/396 640/947 615/955
f 662/956 703/513 704/957
f 650/958 652/464 653/959
f 653/959 654/458 655/960
f 661/961 659/462 660/445
f 669/962 648/529 649/963
f 657/964 654/458 656/494
f 658/965 656/494 659/462
f 544/912 660/445 545/181
f 676/496 674/966 675/967
f 678/492 675/967 677/968
f 680/493 677/968 679/969
f 683/481 685/970 686/480
f 680/493 681/971 682/453
f 682/453 684/972 683/481
f 699/973 697/491 698/974
f 673/498 688/975 674/966
f 649/963 651/469 650/958
f 686/480 590/949 589/343
f 696/976 688/975 687/514
f 690/977 663/534 662/956
f 665/978 692/979 691/980
f 693/981 669/962 694/982
f 701/983 700/495 699/973
f 704/957 702/497 701/983
f 698/974 672/504 671/984
f 8/50 570/259 469/51
f 278/1 309/985 310/2
f 264/4 296/986 295/5
f 372/7 327/987 344/8
f 395/10 351/988 336/11
f 40/13 16/88 17/14
f 29/16 20/310 485/17
f 14/19 13/47 476/20
f 499/22 21/86 22/23
f 35/25 505/73 507/26
f 529/28 471/129 495/29
f 477/31 523/36 496/32
f 30/34 29/16 483/18
f 523/36 477/31 475/37
f 520/39 517/896 489/40
f 524/38 475/37 474/42
f 28/44 33/164 14/45
f 13/47 12/211 473/48
f 510/49 27/99 8/50
f 83/52 10/213 470/53
f 16/55 15/989 480/56
f 37/58 508/61 511/59
f 36/27 507/26 508/61
f 21/62 44/115 43/63
f 506/65 25/104 26/66
f 494/106 472/212 490/70
f 472/212 11/68 490/70
f 522/71 525/75 503/72
f 32/33 31/130 479/74
f 525/75 527/77 501/76
f 527/77 528/397 498/78
f 47/79 48/159 27/80
f 500/24 22/23 23/82
f 497/84 522/71 505/73
f 21/86 499/22 489/40
f 499/22 513/41 489/40
f 41/87 15/91 16/88
f 480/56 15/989 14/89
f 42/46 14/45 15/91
f 17/92 16/55 481/57
f 18/94 17/92 484/93
f 34/96 43/122 12/97
f 509/67 26/66 27/99
f 530/100 56/274 57/101
f 504/103 24/990 25/104
f 516/105 519/991 494/106
f 603/107 110/383 18/94
f 284/108 315/992 316/109
f 380/111 332/993 349/112
f 493/114 492/994 44/115
f 52/116 4/995 3/117
f 44/119 492/996 491/120
f 43/122 44/119 11/121
f 50/123 2/997 5/124
f 277/126 310/998 307/127
f 526/43 474/42 471/129
f 31/130 30/34 482/35
f 95/131 98/999 5/132
f 382/134 345/1000 330/135
f 376/137 329/1001 338/138
f 99/140 100/1002 7/141
f 97/143 96/1003 3/144
f 495/29 518/898 515/146
f 39/15 17/14 18/147
f 514/149 521/893 512/150
f 504/152 502/83 23/82
f 45/154 24/163 33/155
f 25/157 24/163 45/154
f 26/81 25/157 46/158
f 48/159 9/303 8/160
f 22/64 43/63 34/161
f 23/162 34/161 33/155
f 33/164 34/96 13/98
f 275/165 308/1004 309/166
f 270/168 301/1005 302/169
f 100/171 99/1006 144/172
f 397/174 356/1007 341/175
f 85/177 84/290 62/178
f 74/180 543/199 545/181
f 534/183 58/210 59/184
f 67/186 66/242 557/187
f 80/189 81/218 565/190
f 586/192 587/225 531/193
f 538/195 60/215 61/196
f 75/198 540/275 543/199
f 581/200 584/206 535/201
f 549/203 575/925 580/204
f 584/206 586/192 532/194
f 73/207 87/250 59/208
f 533/102 57/101 58/210
f 12/211 11/68 472/212
f 38/60 511/59 470/53
f 538/195 536/1008 59/214
f 82/216 83/52 569/54
f 81/218 82/216 568/217
f 88/219 89/267 66/220
f 71/222 70/263 566/223
f 587/225 547/1009 553/226
f 582/227 563/191 561/228
f 77/230 537/202 539/231
f 583/229 561/228 559/233
f 585/234 559/233 558/235
f 72/237 93/302 92/238
f 68/240 67/186 560/188
f 571/205 557/187 549/203
f 557/187 66/242 549/203
f 554/244 577/1010 576/245
f 86/247 85/177 61/179
f 556/249 581/200 537/202
f 87/250 86/247 60/248
f 541/197 61/196 62/251
f 542/252 62/251 63/253
f 57/255 88/272 79/256
f 72/258 71/222 567/224
f 685/260 159/518 101/261
f 70/263 69/1011 564/264
f 563/191 582/227 555/265
f 63/253 152/512 661/266
f 89/267 551/1012 550/268
f 552/269 551/1013 89/270
f 56/271 89/270 88/272
f 56/274 530/100 548/246
f 530/100 554/244 548/246
f 76/232 539/231 540/275
f 143/276 140/1014 50/277
f 374/279 337/1015 354/280
f 145/282 144/1016 54/283
f 141/285 142/1017 52/286
f 553/226 547/1009 573/288
f 84/290 64/532 63/291
f 572/292 579/923 574/293
f 564/295 69/1018 68/240
f 78/296 69/300 90/297
f 70/299 91/301 90/297
f 91/301 70/299 71/239
f 93/302 72/237 8/160
f 79/304 88/219 67/221
f 78/296 79/304 68/305
f 58/257 79/256 78/209
f 130/306 129/427 110/307
f 119/309 604/327 485/17
f 595/311 106/339 107/312
f 112/314 111/374 616/315
f 125/317 126/350 624/318
f 645/320 646/357 592/321
f 599/323 108/346 109/324
f 120/326 601/421 604/327
f 640/328 643/334 596/329
f 608/331 634/952 639/332
f 643/334 645/320 593/322
f 118/335 132/382 107/336
f 594/338 105/341 106/339
f 591/340 104/420 105/341
f 170/342 686/480 589/343
f 599/323 597/1019 107/345
f 127/347 128/475 628/348
f 126/350 127/347 627/349
f 133/351 134/404 111/352
f 116/354 115/394 625/355
f 646/357 606/1020 612/358
f 641/359 622/319 620/360
f 122/362 598/330 600/363
f 642/361 620/360 618/365
f 644/366 618/365 617/367
f 117/369 138/436 137/370
f 113/372 112/314 619/316
f 630/333 616/315 608/331
f 616/315 111/374 608/331
f 613/376 636/1021 635/377
f 131/379 130/306 109/308
f 615/381 640/328 598/330
f 132/382 131/379 108/380
f 602/325 109/324 110/383
f 647/368 617/367 631/384
f 105/386 133/412 124/387
f 117/389 116/354 626/356
f 147/391 146/488 649/392
f 115/394 114/1022 623/395
f 622/319 641/359 614/396
f 528/397 488/151 512/150
f 290/398 321/1023 322/399
f 386/401 348/833 357/402
f 134/404 610/1024 609/405
f 96/406 97/1025 142/407
f 611/409 610/1026 134/410
f 104/411 134/410 133/412
f 98/413 95/1027 140/414
f 276/416 307/1028 308/417
f 104/420 591/340 607/378
f 591/340 613/376 607/378
f 121/364 600/363 601/421
f 393/422 353/835 346/423
f 612/358 606/1020 632/425
f 129/427 19/148 18/147
f 631/384 638/950 633/428
f 623/429 114/1029 113/372
f 123/430 114/434 135/431
f 115/433 136/435 135/431
f 136/435 115/433 116/371
f 138/436 117/369 101/437
f 124/439 133/351 112/353
f 123/430 124/439 113/440
f 106/388 124/387 123/337
f 172/441 151/508 152/442
f 161/444 65/182 545/181
f 149/446 148/474 653/447
f 674/449 153/506 154/450
f 167/452 680/493 682/453
f 704/455 648/529 670/456
f 654/458 698/463 671/459
f 162/461 161/444 660/445
f 698/463 654/458 652/464
f 695/466 692/979 664/467
f 699/465 652/464 651/469
f 160/471 165/546 149/472
f 148/474 147/391 650/393
f 128/475 103/344 589/343
f 101/261 117/389 629/390
f 151/476 150/1030 657/477
f 169/479 683/481 686/480
f 168/454 682/453 683/481
f 153/482 176/524 175/483
f 681/485 157/520 158/486
f 669/522 649/392 665/490
f 649/392 146/488 665/490
f 697/491 700/495 678/492
f 164/460 163/530 656/494
f 700/495 702/497 676/496
f 702/497 703/513 673/498
f 179/499 180/542 159/500
f 675/451 154/450 155/502
f 672/504 697/491 680/493
f 153/506 674/449 664/467
f 674/449 688/468 664/467
f 173/507 150/511 151/508
f 657/477 150/1030 149/509
f 174/473 149/472 150/511
f 152/512 151/476 658/478
f 703/513 663/534 687/514
f 166/515 175/528 147/516
f 684/487 158/486 159/518
f 679/519 156/1031 157/520
f 691/521 694/1032 669/522
f 588/236 558/235 572/292
f 668/523 667/1033 176/524
f 176/525 667/1034 666/526
f 175/528 176/525 146/527
f 701/470 651/469 648/529
f 163/530 162/461 659/462
f 670/456 693/981 690/531
f 171/443 152/442 63/291
f 689/533 696/976 687/514
f 679/535 677/503 155/502
f 177/537 156/545 165/538
f 157/540 156/545 177/537
f 158/501 157/540 178/541
f 180/542 102/438 101/437
f 154/484 175/483 166/543
f 155/544 166/543 165/538
f 165/546 166/515 148/517
f 250/547 246/581 254/548
f 463/550 468/1035 454/551
f 247/553 245/584 253/554
f 247/556 456/840 459/557
f 248/559 245/558 459/557
f 452/561 458/841 462/562
f 467/564 460/843 457/565
f 249/567 246/571 461/568
f 250/570 465/572 461/568
f 250/570 249/567 466/569
f 255/573 261/1036 262/574
f 256/576 262/1037 260/577
f 248/579 247/553 252/555
f 246/581 249/583 256/582
f 249/583 250/547 255/549
f 245/584 248/579 251/580
f 251/591 257/1038 259/592
f 253/594 259/1039 258/595
f 254/597 260/1040 261/598
f 252/600 258/1041 257/601
f 54/603 6/1042 7/604
f 269/606 387/688 391/668
f 391/668 361/607 269/606
f 361/607 360/665 270/608
f 344/611 327/1043 328/1044
f 328/1044 335/1045 336/609
f 336/609 351/1046 352/610
f 352/610 343/1047 344/611
f 344/611 328/1044 336/609
f 2/612 331/790 330/789
f 330/789 345/613 2/612
f 345/613 347/637 95/614
f 96/615 350/796 349/795
f 349/795 332/616 96/615
f 332/616 334/792 3/617
f 3/617 334/792 333/791
f 333/791 340/618 3/617
f 340/618 342/628 51/619
f 50/620 339/794 338/793
f 338/793 329/621 50/620
f 329/621 331/790 2/612
f 378/622 340/1048 333/623
f 49/625 367/803 366/654
f 366/654 363/626 49/625
f 363/626 362/802 1/627
f 341/629 356/799 51/619
f 356/799 358/800 141/641
f 51/619 356/799 141/641
f 339/794 50/620 337/631
f 50/620 140/632 337/631
f 140/632 355/798 354/630
f 384/633 343/831 352/634
f 393/422 287/646 290/636
f 346/638 353/797 95/614
f 353/797 355/798 140/632
f 95/614 353/797 140/632
f 350/796 96/615 348/640
f 96/615 141/641 348/640
f 141/641 358/800 357/639
f 359/642 278/653 277/643
f 374/279 279/660 282/644
f 372/7 263/659 266/645
f 381/424 288/649 287/646
f 379/624 277/643 276/647
f 373/139 271/658 274/648
f 384/633 289/680 288/649
f 396/403 294/672 293/650
f 364/651 283/661 286/652
f 278/653 359/642 363/626
f 363/626 366/654 278/653
f 366/654 365/679 275/655
f 369/12 282/644 281/656
f 370/657 272/675 271/658
f 383/9 264/681 263/659
f 392/281 280/684 279/660
f 283/661 364/651 368/677
f 368/677 400/662 283/661
f 400/662 399/692 284/663
f 377/176 286/652 285/664
f 360/665 380/111 267/666
f 1/667 362/1049 361/607
f 361/607 391/668 1/667
f 391/668 390/1050 94/669
f 375/136 266/645 265/670
f 398/671 291/690 294/672
f 376/137 274/648 273/673
f 371/674 273/673 272/675
f 139/676 401/1051 400/662
f 400/662 368/677 139/676
f 368/677 367/1052 49/678
f 385/113 268/689 267/666
f 365/679 378/622 276/647
f 394/635 290/636 289/680
f 382/134 265/670 264/681
f 388/682 386/401 293/650
f 395/10 281/656 280/684
f 94/685 390/805 389/691
f 389/691 402/686 94/685
f 402/686 401/808 139/687
f 387/688 269/606 268/689
f 291/690 398/671 402/686
f 402/686 389/691 291/690
f 389/691 388/682 292/683
f 399/692 397/174 285/664
f 296/693 298/1053 297/694
f 300/696 302/1054 301/697
f 303/699 306/1055 305/700
f 307/702 310/1056 309/703
f 312/705 314/1057 313/706
f 315/708 318/1058 317/709
f 320/711 322/1059 321/712
f 323/714 326/1060 325/715
f 283/717 316/1061 317/718
f 263/720 295/1062 297/721
f 285/723 318/1063 315/724
f 265/726 298/1064 296/727
f 292/729 323/1065 324/730
f 272/732 303/1066 304/733
f 286/735 317/1067 318/736
f 266/738 297/1068 298/739
f 291/741 324/1069 325/742
f 271/744 304/1070 305/745
f 293/747 326/1071 323/748
f 273/750 306/1072 303/751
f 280/753 312/1073 311/754
f 294/756 325/1074 326/757
f 274/759 305/1075 306/760
f 279/762 311/1076 313/763
f 281/765 314/1077 312/766
f 288/768 320/1078 319/769
f 268/771 300/1079 299/772
f 282/774 313/1080 314/775
f 287/777 319/1081 321/778
f 267/780 299/1082 301/781
f 289/783 322/1083 320/784
f 269/786 302/1084 300/787
f 363/626 359/642 360/809
f 360/809 361/801 363/626
f 368/804 364/1085 365/679
f 365/679 366/654 368/804
f 391/806 387/1086 388/682
f 388/682 389/691 391/806
f 402/686 398/671 399/817
f 399/817 400/807 402/686
f 360/809 359/642 379/624
f 375/811 376/137 371/674
f 365/679 364/1085 377/813
f 373/139 374/824 369/814
f 388/682 387/1086 385/815
f 381/424 382/829 383/816
f 399/817 398/671 396/403
f 392/819 393/422 394/635
f 372/812 371/674 328/821
f 336/823 335/1087 370/657
f 374/824 373/139 338/138
f 330/826 329/1001 376/137
f 380/810 379/624 333/623
f 341/828 340/1048 378/622
f 346/423 345/1088 382/829
f 384/633 383/816 344/830
f 386/401 385/815 349/832
f 393/422 392/819 354/834
f 352/634 351/1089 395/820
f 357/402 356/1090 397/818
f 370/657 335/1087 328/821
f 460/843 462/562 458/841
f 454/838 456/840 451/560
f 458/849 452/836 451/560
f 453/850 452/1091 464/851
f 465/572 464/846 462/853
f 463/845 465/572 466/569
f 468/854 467/1092 455/855
f 457/857 459/557 456/840
f 460/858 467/847 466/569
f 248/559 451/560 456/840
f 493/1093 489/1094 492/861
f 489/1094 490/859 492/861
f 552/1095 548/1096 551/864
f 548/1096 549/862 551/864
f 611/1097 607/1098 610/867
f 607/1098 608/865 610/867
f 668/1099 664/1100 667/870
f 664/1100 665/868 667/870
f 487/871 488/151 528/397
f 473/873 474/42 475/37
f 476/874 475/37 477/31
f 484/876 481/880 482/35
f 494/877 495/29 471/129
f 480/879 478/875 477/31
f 481/880 480/879 479/74
f 486/881 484/876 483/18
f 501/76 498/78 499/882
f 503/72 501/76 500/883
f 505/73 503/72 502/884
f 508/61 509/888 510/886
f 505/73 504/885 506/887
f 507/26 506/887 509/888
f 524/889 525/75 522/71
f 498/78 512/150 513/891
f 472/878 471/129 474/42
f 511/59 510/886 469/892
f 521/893 520/1101 513/891
f 515/894 514/149 488/151
f 490/895 489/40 517/896
f 518/898 495/29 494/877
f 526/900 527/77 525/75
f 529/872 528/397 527/77
f 523/890 522/71 497/84
f 588/236 546/294 547/902
f 535/201 532/194 533/904
f 537/202 535/201 534/905
f 540/275 541/911 542/907
f 531/193 553/226 554/908
f 537/202 536/906 538/910
f 539/231 538/910 541/911
f 543/199 542/907 544/912
f 557/913 558/235 559/233
f 560/914 559/233 561/228
f 562/915 561/228 563/191
f 570/917 567/919 568/217
f 566/918 564/916 563/191
f 567/919 566/918 565/190
f 582/227 583/229 584/920
f 571/922 572/292 558/235
f 532/194 531/193 530/909
f 469/892 570/917 569/54
f 571/922 580/1102 579/923
f 574/293 573/1103 547/902
f 549/203 548/1104 576/924
f 554/908 553/226 578/289
f 583/229 585/234 586/927
f 585/234 588/236 587/903
f 555/265 582/227 581/921
f 647/368 605/385 606/929
f 596/329 593/322 594/931
f 598/330 596/329 595/932
f 601/421 602/938 603/934
f 592/321 612/358 613/935
f 598/330 597/933 599/937
f 600/363 599/937 602/938
f 604/327 603/934 486/881
f 616/939 617/367 618/365
f 619/940 618/365 620/360
f 621/941 620/360 622/319
f 629/943 626/945 627/349
f 625/944 623/942 622/319
f 626/945 625/944 624/318
f 641/359 642/361 643/946
f 630/948 631/384 617/367
f 593/322 592/321 591/936
f 590/949 629/943 628/348
f 630/948 639/1105 638/950
f 633/428 632/1106 606/929
f 608/331 607/1107 635/951
f 613/935 612/358 637/426
f 642/361 644/366 645/954
f 644/366 647/368 646/930
f 614/396 641/359 640/947
f 662/956 663/534 703/513
f 650/958 651/469 652/464
f 653/959 652/464 654/458
f 661/961 658/965 659/462
f 669/962 670/456 648/529
f 657/964 655/960 654/458
f 658/965 657/964 656/494
f 544/912 661/961 660/445
f 676/496 673/498 674/966
f 678/492 676/496 675/967
f 680/493 678/492 677/968
f 683/481 684/972 685/970
f 680/493 679/969 681/971
f 682/453 681/971 684/972
f 699/973 700/495 697/491
f 673/498 687/514 688/975
f 649/963 648/529 651/469
f 686/480 685/970 590/949
f 696/976 695/1108 688/975
f 690/977 689/533 663/534
f 665/978 664/467 692/979
f 693/981 670/456 669/962
f 701/983 702/497 700/495
f 704/957 703/513 702/497
f 698/974 697/491 672/504
f 8/50 72/258 570/259
f 442/1109 415/1110 418/1111
f 5/1112 422/1113 53/1114
f 54/1115 413/1116 6/1117
f 4/1118 432/1119 97/1120
f 6/1117 438/1121 99/1122
f 98/1123 411/1124 5/1112
f 100/1125 405/1126 7/1127
f 433/1128 412/1129 409/1130
f 423/1131 414/1132 425/1133
f 7/1127 416/1134 55/1135
f 52/1136 407/1137 4/1118
f 431/1138 440/1139 444/1140
f 448/1141 54/1115 144/1142
f 450/1143 421/1144 424/1145
f 443/1146 52/1136 142/1147
f 447/1148 53/1114 422/1113
f 448/1141 99/1122 438/1121
f 443/1146 97/1120 432/1119
f 447/1148 98/1123 143/1149
f 441/1150 100/1125 145/1151
f 437/1152 446/1153 449/1154
f 417/1155 408/1156 419/1157
f 441/1150 55/1135 416/1134
f 403/1158 404/1159 405/1126
f 406/1160 407/1161 408/1162
f 409/1163 410/1164 411/1124
f 412/1129 413/1165 414/1166
f 415/1167 416/1134 417/1168
f 418/1111 419/1169 420/1170
f 421/1171 422/1113 423/1172
f 424/1145 425/1173 426/1174
f 427/1175 428/1176 429/1177
f 430/1178 431/1179 432/1180
f 433/1181 434/1182 435/1183
f 436/1184 437/1185 438/1186
f 439/1187 440/1188 441/1150
f 442/1109 443/1189 444/1190
f 445/1191 446/1192 447/1148
f 448/1193 449/1194 450/1143
f 406/1195 404/1196 403/1197
f 412/1198 410/1199 409/1200
f 419/1157 415/1201 417/1155
f 425/1133 421/1202 423/1131
f 408/1156 420/1203 419/1157
f 411/1124 423/1172 422/1113
f 414/1132 426/1204 425/1133
f 405/1126 417/1168 416/1134
f 434/1182 409/1163 411/1124
f 430/1178 407/1161 406/1160
f 436/1184 413/1165 412/1129
f 427/1175 403/1158 405/1126
f 431/1138 429/1205 428/1206
f 437/1152 433/1207 435/1208
f 445/1191 422/1113 421/1171
f 443/1189 418/1111 420/1170
f 448/1193 424/1145 426/1174
f 439/1187 416/1134 415/1167
f 442/1209 440/1139 439/1210
f 450/1211 446/1153 445/1212
f 432/1213 444/1140 443/1214
f 435/1183 447/1148 446/1192
f 438/1215 449/1154 448/1216
f 428/1176 441/1150 440/1188
f 429/1217 406/1160 403/1218
f 442/1109 439/1219 415/1110
f 5/1112 411/1124 422/1113
f 54/1115 426/1220 413/1116
f 4/1118 407/1137 432/1119
f 6/1117 413/1116 438/1121
f 98/1123 434/1182 411/1124
f 100/1125 427/1175 405/1126
f 433/1128 436/1184 412/1129
f 423/1131 410/1199 414/1132
f 7/1127 405/1126 416/1134
f 52/1136 420/1221 407/1137
f 431/1138 428/1206 440/1139
f 448/1141 426/1220 54/1115
f 450/1143 445/1222 421/1144
f 443/1146 420/1221 52/1136
f 447/1148 143/1149 53/1114
f 448/1141 144/1142 99/1122
f 443/1146 142/1147 97/1120
f 447/1148 434/1182 98/1123
f 441/1150 427/1175 100/1125
f 437/1152 435/1208 446/1153
f 417/1155 404/1196 408/1156
f 441/1150 145/1151 55/1135
f 406/1195 408/1156 404/1196
f 412/1198 414/1132 410/1199
f 419/1157 418/1223 415/1201
f 425/1133 424/1224 421/1202
f 408/1156 407/1225 420/1203
f 411/1124 410/1164 423/1172
f 414/1132 413/1226 426/1204
f 405/1126 404/1159 417/1168
f 434/1182 433/1181 409/1163
f 430/1178 432/1180 407/1161
f 436/1184 438/1186 413/1165
f 427/1175 429/1177 403/1158
f 431/1138 430/1227 429/1205
f 437/1152 436/1228 433/1207
f 445/1191 447/1148 422/1113
f 443/1189 442/1109 418/1111
f 448/1193 450/1143 424/1145
f 439/1187 441/1150 416/1134
f 442/1209 444/1140 440/1139
f 450/1211 449/1154 446/1153
f 432/1213 431/1138 444/1140
f 435/1183 434/1182 447/1148
f 438/1215 437/1152 449/1154
f 428/1176 427/1175 441/1150
f 429/1217 430/1178 406/1160
f 182/1229 183/1230 181/1231
f 184/1232 185/1233 183/1230
f 186/1234 187/1235 185/1233
f 188/1236 189/1237 187/1235
f 190/1238 191/1239 189/1240
f 192/1241 193/1242 191/1239
f 194/1243 195/1244 193/1242
f 196/1245 197/1246 195/1244
f 198/1247 199/1248 197/1246
f 200/1249 201/1250 199/1248
f 202/1251 203/1252 201/1250
f 204/1253 205/1254 203/1252
f 206/1255 207/1256 205/1257
f 208/1258 209/1259 207/1256
f 210/1260 211/1261 209/1259
f 212/1262 213/1263 211/1261
f 214/1264 215/1265 213/1263
f 216/1266 217/1267 215/1265
f 218/1268 219/1269 217/1267
f 220/1270 221/1271 219/1269
f 222/1272 223/1273 221/1274
f 224/1275 225/1276 223/1273
f 226/1277 227/1278 225/1276
f 228/1279 229/1280 227/1278
f 230/1281 231/1282 229/1280
f 232/1283 233/1284 231/1282
f 234/1285 235/1286 233/1284
f 236/1287 237/1288 235/1286
f 238/1289 239/1290 237/1291
f 240/1292 241/1293 239/1290
f 234/1294 218/1295 202/1296
f 242/1297 243/1298 241/1293
f 244/1299 181/1231 243/1298
f 182/1229 184/1232 183/1230
f 184/1232 186/1234 185/1233
f 186/1234 188/1236 187/1235
f 188/1236 190/1300 189/1237
f 190/1238 192/1241 191/1239
f 192/1241 194/1243 193/1242
f 194/1243 196/1245 195/1244
f 196/1245 198/1247 197/1246
f 198/1247 200/1249 199/1248
f 200/1249 202/1251 201/1250
f 202/1251 204/1253 203/1252
f 204/1253 206/1301 205/1254
f 206/1255 208/1258 207/1256
f 208/1258 210/1260 209/1259
f 210/1260 212/1262 211/1261
f 212/1262 214/1264 213/1263
f 214/1264 216/1266 215/1265
f 216/1266 218/1268 217/1267
f 218/1268 220/1270 219/1269
f 220/1270 222/1302 221/1271
f 222/1272 224/1275 223/1273
f 224/1275 226/1277 225/1276
f 226/1277 228/1279 227/1278
f 228/1279 230/1281 229/1280
f 230/1281 232/1283 231/1282
f 232/1283 234/1285 233/1284
f 234/1285 236/1287 235/1286
f 236/1287 238/1303 237/1288
f 238/1289 240/1292 239/1290
f 240/1292 242/1297 241/1293
f 186/1304 184/1305 242/1306
f 184/1305 182/1307 242/1306
f 182/1307 244/1308 242/1306
f 242/1306 240/1309 238/1310
f 238/1310 236/1311 242/1306
f 236/1311 234/1294 242/1306
f 234/1294 232/1312 230/1313
f 230/1313 228/1314 226/1315
f 226/1315 224/1316 222/1317
f 222/1317 220/1318 218/1295
f 218/1295 216/1319 214/1320
f 214/1320 212/1321 210/1322
f 210/1322 208/1323 206/1324
f 206/1324 204/1325 202/1296
f 202/1296 200/1326 198/1327
f 198/1327 196/1328 194/1329
f 194/1329 192/1330 190/1331
f 190/1331 188/1332 186/1304
f 234/1294 230/1313 218/1295
f 230/1313 226/1315 218/1295
f 226/1315 222/1317 218/1295
f 218/1295 214/1320 210/1322
f 210/1322 206/1324 218/1295
f 206/1324 202/1296 218/1295
f 202/1296 198/1327 186/1304
f 198/1327 194/1329 186/1304
f 194/1329 190/1331 186/1304
f 186/1304 242/1306 234/1294
f 186/1304 234/1294 202/1296
f 242/1297 244/1299 243/1298
f 244/1299 182/1229 181/1231
